<svg width="28" height="28" viewBox="0 0 28 28" fill="none" xmlns="http://www.w3.org/2000/svg">
<path d="M9.13992 20.7164L13.9454 15.9103L18.7508 20.7164L20.6196 18.8474L15.8141 14.0412L20.6196 9.23512L18.7508 7.36608L13.9454 12.1722L9.13992 7.36608L7.27114 9.23512L12.0766 14.0412L7.27114 18.8474L9.13992 20.7164ZM13.9454 27.3916C12.0988 27.3916 10.3635 27.0411 8.73947 26.3402C7.11541 25.6393 5.7027 24.6881 4.50134 23.4866C3.29998 22.2851 2.34891 20.8721 1.64811 19.2479C0.94732 17.6236 0.596924 15.888 0.596924 14.0412C0.596924 12.1944 0.94732 10.4589 1.64811 8.83461C2.34891 7.21032 3.29998 5.79741 4.50134 4.59589C5.7027 3.39436 7.11541 2.44315 8.73947 1.74226C10.3635 1.04136 12.0988 0.690918 13.9454 0.690918C15.7919 0.690918 17.5272 1.04136 19.1512 1.74226C20.7753 2.44315 22.188 3.39436 23.3894 4.59589C24.5907 5.79741 25.5418 7.21032 26.2426 8.83461C26.9434 10.4589 27.2938 12.1944 27.2938 14.0412C27.2938 15.888 26.9434 17.6236 26.2426 19.2479C25.5418 20.8721 24.5907 22.2851 23.3894 23.4866C22.188 24.6881 20.7753 25.6393 19.1512 26.3402C17.5272 27.0411 15.7919 27.3916 13.9454 27.3916ZM13.9454 24.7215C16.9265 24.7215 19.4516 23.6868 21.5206 21.6175C23.5896 19.5482 24.6241 17.0228 24.6241 14.0412C24.6241 11.0597 23.5896 8.53423 21.5206 6.46493C19.4516 4.39563 16.9265 3.36098 13.9454 3.36098C10.9642 3.36098 8.43913 4.39563 6.37012 6.46493C4.30111 8.53423 3.26661 11.0597 3.26661 14.0412C3.26661 17.0228 4.30111 19.5482 6.37012 21.6175C8.43913 23.6868 10.9642 24.7215 13.9454 24.7215Z" fill="#1C1B1F"/>
</svg>
