<svg width="61" height="59" viewBox="0 0 61 59" fill="none" xmlns="http://www.w3.org/2000/svg">
<g clip-path="url(#clip0_209_3907)">
<path d="M50.3496 20.3786C50.3487 20.0884 50.3418 19.7981 50.3288 19.5082V3.052L45.7796 7.6015C42.056 3.04389 36.3918 0.132812 30.0471 0.132812C23.4445 0.132812 17.5788 3.28432 13.8711 8.16527L21.3281 15.7007C22.0583 14.3517 23.0925 13.1913 24.3488 12.3114C25.6508 11.2956 27.4953 10.4647 30.0471 10.4647C30.3554 10.4647 30.5934 10.5009 30.7681 10.5686C33.9298 10.8183 36.6703 12.563 38.2837 15.0954L33.0051 20.3739C39.691 20.3476 47.2438 20.3324 50.3491 20.3774" fill="#1C3AA9"/>
<path d="M29.9294 0.132812C29.6391 0.133636 29.3489 0.140548 29.059 0.153543H12.6028L17.1523 4.70305C12.5947 8.42643 9.68359 14.0909 9.68359 20.4353C9.68359 27.0381 12.8351 32.9039 17.7161 36.6118L25.2515 29.1548C23.9025 28.4245 22.7421 27.3903 21.8621 26.1338C20.8464 24.8321 20.0155 22.9873 20.0155 20.4356C20.0155 20.1275 20.0517 19.8894 20.1194 19.7145C20.3691 16.553 22.1138 13.8125 24.6462 12.1991L29.9246 17.4775C29.8984 10.7914 29.8829 3.23857 29.9282 0.133289" fill="#4285F4"/>
<path d="M9.68359 20.4336C9.68455 20.7253 9.69122 21.0152 9.70432 21.304V37.7602L14.2538 33.2107C17.9772 37.7683 23.6416 40.6794 29.9861 40.6794C36.5889 40.6794 42.4547 37.5279 46.1625 32.6469L38.7055 25.1115C37.9753 26.4605 36.941 27.6209 35.6846 28.5008C34.3829 29.5166 32.5381 30.3475 29.9863 30.3475C29.6782 30.3475 29.4402 30.3113 29.2653 30.2434C26.1038 29.9939 23.3633 28.249 21.7499 25.7168L27.0283 20.4381C20.3422 20.4643 12.7894 20.4798 9.68407 20.4348" fill="#ABABAB"/>
<path d="M13.1086 48.5432C12.6141 48.5432 12.1707 48.6369 11.7785 48.8244C11.3892 49.0054 11.0476 49.2748 10.7808 49.6112C10.5123 49.9522 10.3054 50.3658 10.1606 50.8517C10.02 51.3335 9.94943 51.8727 9.94943 52.4696V54.19C9.94943 54.7909 10.02 55.3323 10.1606 55.8141C10.3054 56.2959 10.5101 56.7072 10.7746 57.0484C11.0389 57.3892 11.3584 57.6515 11.7337 57.8347C12.1087 58.0182 12.531 58.11 12.9999 58.11C13.4817 58.11 13.9037 58.0394 14.2661 57.8988C14.6329 57.7583 14.9398 57.5557 15.1869 57.2912C15.4342 57.0227 15.6239 56.6989 15.7561 56.3193C15.8926 55.9399 15.9734 55.5091 15.9992 55.0276H14.8161C14.7863 55.3983 14.7351 55.7162 14.6626 55.9804C14.5902 56.2404 14.4834 56.4558 14.3429 56.6262C14.2063 56.7925 14.0274 56.9162 13.8055 56.9972C13.5882 57.0739 13.3194 57.1123 12.9999 57.1123C12.6589 57.1123 12.3689 57.0377 12.1302 56.8883C11.8914 56.7348 11.6975 56.5261 11.5483 56.2616C11.4034 55.9974 11.2967 55.6883 11.2285 55.3345C11.1647 54.9806 11.1325 54.5991 11.1325 54.1898V52.4567C11.1325 52.0176 11.1709 51.6189 11.2476 51.2608C11.3286 50.9029 11.4501 50.5979 11.6122 50.3465C11.7742 50.0949 11.9789 49.9009 12.2262 49.7644C12.4733 49.6238 12.7676 49.5535 13.1086 49.5535C13.3943 49.5535 13.6395 49.5962 13.8439 49.6815C14.0461 49.7605 14.223 49.8931 14.3555 50.0651C14.492 50.2355 14.5964 50.453 14.6688 50.7173C14.7415 50.9818 14.7904 51.297 14.8161 51.6637H15.9992C15.9777 51.1607 15.8991 50.7154 15.7625 50.3272C15.626 49.9393 15.4363 49.6131 15.1933 49.3488C14.9502 49.0843 14.6541 48.8842 14.3045 48.7477C13.959 48.6114 13.5606 48.5432 13.1086 48.5432ZM41.9883 48.5432C41.4936 48.5432 41.0501 48.6369 40.6579 48.8244C40.2687 49.0054 39.927 49.2748 39.6602 49.6112C39.3917 49.9522 39.1851 50.3658 39.04 50.8517C38.8994 51.3335 38.8291 51.8727 38.8291 52.4696V54.19C38.8291 54.7909 38.8994 55.3323 39.04 55.8141C39.1849 56.2959 39.3896 56.7072 39.6541 57.0484C39.9183 57.3892 40.2378 57.6515 40.6131 57.8347C40.9884 58.0182 41.4104 58.11 41.8794 58.11C42.3612 58.11 42.7832 58.0394 43.1456 57.8988C43.5123 57.7583 43.8192 57.5557 44.0665 57.2912C44.3136 57.0227 44.5033 56.6989 44.6356 56.3193C44.7721 55.9399 44.8531 55.5091 44.8786 55.0276H43.6955C43.6658 55.3983 43.6145 55.7162 43.5421 55.9804C43.4696 56.2404 43.3631 56.4558 43.2223 56.6262C43.086 56.7925 42.9068 56.9162 42.6852 56.9972C42.4677 57.0739 42.1991 57.1123 41.8794 57.1123C41.5384 57.1123 41.2484 57.0377 41.0096 56.8883C40.7709 56.7348 40.5769 56.5261 40.4277 56.2616C40.2829 55.9974 40.1764 55.6883 40.108 55.3345C40.0441 54.9806 40.0122 54.5991 40.0122 54.1898V52.4567C40.0122 52.0176 40.0503 51.6189 40.1273 51.2608C40.2083 50.9029 40.3298 50.5979 40.4918 50.3465C40.6539 50.0949 40.8583 49.9009 41.1057 49.7644C41.353 49.6238 41.647 49.5535 41.988 49.5535C42.274 49.5535 42.5189 49.5962 42.7236 49.6815C42.928 49.7625 43.0986 49.8902 43.2352 50.0651C43.3715 50.2355 43.4758 50.453 43.5485 50.7173C43.621 50.9818 43.67 51.297 43.6955 51.6637H44.8786C44.8572 51.1607 44.7785 50.7154 44.642 50.3272C44.5055 49.9393 44.3158 49.6131 44.0727 49.3488C43.8297 49.0843 43.5335 48.8842 43.1839 48.7477C42.8384 48.6114 42.44 48.543 41.988 48.543L41.9883 48.5432ZM19.8493 48.6712L16.8501 57.982H18.0522L18.7749 55.5518H21.9212L22.6565 57.982H23.8589L20.8532 48.6712H19.8493ZM25.1249 48.6712V57.982H26.295V54.3368H28.0919C28.5397 54.3368 28.9362 54.2748 29.2814 54.1514C29.6269 54.0234 29.9167 53.8402 30.1512 53.6014C30.3899 53.3627 30.5689 53.0684 30.6882 52.7188C30.8121 52.365 30.8739 51.9644 30.8739 51.5167C30.8739 51.1031 30.8119 50.7237 30.6882 50.3784C30.5691 50.0289 30.3921 49.7282 30.1576 49.4768C29.9231 49.2209 29.631 49.0226 29.2814 48.882C28.9359 48.7415 28.5397 48.6709 28.0919 48.6709L25.1249 48.6712ZM31.7691 48.6712V49.6815H34.2119V57.982H35.3819V49.6815H37.8314V48.6712H31.7691ZM46.4582 48.6712V57.982H47.6281V53.6782H51.3758V57.982H52.5525V48.6712H51.3758V52.6743H47.6284V48.6712H46.4582ZM56.9902 48.6712L53.9912 57.982H55.1936L55.916 55.5518H59.0623L59.7979 57.982H61L57.9943 48.6712H56.9902ZM26.2948 49.6815H28.0919C28.3776 49.6815 28.6204 49.7325 28.8211 49.8349C29.0255 49.9374 29.1918 50.0737 29.3198 50.2443C29.4549 50.421 29.5527 50.6232 29.6074 50.8388C29.6715 51.0604 29.7034 51.2908 29.7034 51.5296C29.7034 51.7941 29.6715 52.0369 29.6074 52.2587C29.5526 52.4665 29.4546 52.6604 29.3198 52.8277C29.1918 52.9855 29.0255 53.1089 28.8208 53.1985C28.6207 53.2881 28.3776 53.3329 28.0917 53.3329H26.295L26.2948 49.6815ZM20.3478 50.3082L21.6204 54.5415H19.0818L20.3478 50.3082ZM57.4892 50.3082L58.7616 54.5415H56.2229L57.4892 50.3082ZM2.4045 50.9348C2.11022 50.9348 1.85645 51.0094 1.64343 51.1588C1.43445 51.308 1.25979 51.5105 1.11921 51.7662L1.09991 51.0628H0V57.982H1.13184V53.0322C1.23859 52.7379 1.38989 52.5056 1.586 52.3352C1.78616 52.1646 2.03993 52.0793 2.34683 52.0793C2.445 52.0793 2.53245 52.0836 2.60894 52.0922C2.68591 52.0965 2.76907 52.1069 2.85842 52.1241L2.85223 51.0242C2.82548 51.0125 2.79751 51.0039 2.76883 50.9985C2.73147 50.9847 2.69306 50.974 2.65398 50.9665C2.60955 50.9578 2.56469 50.9514 2.51959 50.9475C2.48173 50.9394 2.44319 50.9351 2.4045 50.9346V50.9348ZM6.20937 50.9348C5.88102 50.9348 5.56363 50.9925 5.25648 51.1076C4.94958 51.2227 4.67675 51.4123 4.43799 51.6766C4.20352 51.9368 4.01385 52.2778 3.86897 52.6998C3.72386 53.1177 3.65142 53.6315 3.65142 54.241V55.0211C3.65142 55.5499 3.71338 56.0081 3.83704 56.396C3.96047 56.7839 4.13728 57.1061 4.3677 57.3618C4.60291 57.6138 4.8944 57.8067 5.21836 57.9246C5.55076 58.0482 5.92367 58.11 6.33733 58.11C6.63566 58.11 6.90205 58.0802 7.13676 58.0204C7.37552 57.9608 7.5864 57.8841 7.76988 57.7902C7.94143 57.7005 8.10052 57.5887 8.2431 57.4578C8.36866 57.3416 8.48218 57.2131 8.58194 57.0742L7.99362 56.3579C7.89974 56.473 7.79966 56.5795 7.69315 56.6774C7.5864 56.7713 7.46916 56.8545 7.34144 56.9269C7.20779 56.9973 7.06598 57.051 6.91921 57.0868C6.74961 57.127 6.57572 57.1464 6.40143 57.1444C5.87697 57.1444 5.47404 56.976 5.19263 56.6393C4.9155 56.3024 4.77706 55.7631 4.77706 55.0214V54.8612H8.6396V54.2026C8.6396 53.6741 8.5948 53.2071 8.50521 52.8022C8.41562 52.3972 8.27289 52.0562 8.07678 51.7791C7.88593 51.5063 7.6253 51.2899 7.32214 51.1524C7.01524 51.0073 6.64423 50.9348 6.20937 50.9348ZM6.20937 51.907C6.45671 51.907 6.66139 51.9516 6.82342 52.0412C6.9837 52.129 7.1165 52.2596 7.20705 52.4184C7.30499 52.5804 7.37552 52.7744 7.41817 53.0005C7.46488 53.2221 7.4949 53.4673 7.50753 53.7358V53.8893H4.78326C4.80041 53.5014 4.84736 53.1794 4.92384 52.9235C5.00081 52.6679 5.10089 52.4653 5.22456 52.3162C5.35251 52.1627 5.49953 52.0562 5.66585 51.9964C5.84047 51.9353 6.02438 51.905 6.20937 51.9068V51.907Z" fill="#A6A6A6"/>
</g>
<defs>
<clipPath id="clip0_209_3907">
<rect width="61" height="58.1406" fill="white" transform="translate(0 0.132812)"/>
</clipPath>
</defs>
</svg>
