<svg width="400" height="400" viewBox="0 0 400 400" fill="none" xmlns="http://www.w3.org/2000/svg">
<circle cx="200" cy="200" r="199" stroke="#E16811" stroke-width="2"/>
<line x1="35.2296" y1="193.556" x2="301.553" y2="331.251" stroke="#E16811"/>
<path d="M50 197.946H77.7946V170.151H50V197.946Z" fill="black"/>
<path d="M94.976 190.16C94.1013 190.16 93.264 190.037 92.464 189.792C91.664 189.536 91.0293 189.211 90.56 188.816L91.28 187.2C91.728 187.552 92.2827 187.845 92.944 188.08C93.6053 188.315 94.2827 188.432 94.976 188.432C95.5627 188.432 96.0373 188.368 96.4 188.24C96.7627 188.112 97.0293 187.941 97.2 187.728C97.3707 187.504 97.456 187.253 97.456 186.976C97.456 186.635 97.3333 186.363 97.088 186.16C96.8427 185.947 96.5227 185.781 96.128 185.664C95.744 185.536 95.312 185.419 94.832 185.312C94.3627 185.205 93.888 185.083 93.408 184.944C92.9387 184.795 92.5067 184.608 92.112 184.384C91.728 184.149 91.4133 183.84 91.168 183.456C90.9227 183.072 90.8 182.581 90.8 181.984C90.8 181.376 90.96 180.821 91.28 180.32C91.6107 179.808 92.1067 179.403 92.768 179.104C93.44 178.795 94.288 178.64 95.312 178.64C95.984 178.64 96.6507 178.725 97.312 178.896C97.9733 179.067 98.5493 179.312 99.04 179.632L98.384 181.248C97.8827 180.949 97.3653 180.731 96.832 180.592C96.2987 180.443 95.7867 180.368 95.296 180.368C94.72 180.368 94.2507 180.437 93.888 180.576C93.536 180.715 93.2747 180.896 93.104 181.12C92.944 181.344 92.864 181.6 92.864 181.888C92.864 182.229 92.9813 182.507 93.216 182.72C93.4613 182.923 93.776 183.083 94.16 183.2C94.5547 183.317 94.992 183.435 95.472 183.552C95.952 183.659 96.4267 183.781 96.896 183.92C97.376 184.059 97.808 184.24 98.192 184.464C98.5867 184.688 98.9013 184.992 99.136 185.376C99.3813 185.76 99.504 186.245 99.504 186.832C99.504 187.429 99.3387 187.984 99.008 188.496C98.688 188.997 98.192 189.403 97.52 189.712C96.848 190.011 96 190.16 94.976 190.16ZM106.639 190V188.272L106.527 187.904V184.88C106.527 184.293 106.351 183.84 105.999 183.52C105.647 183.189 105.113 183.024 104.399 183.024C103.919 183.024 103.444 183.099 102.975 183.248C102.516 183.397 102.127 183.605 101.807 183.872L101.023 182.416C101.481 182.064 102.025 181.803 102.655 181.632C103.295 181.451 103.956 181.36 104.639 181.36C105.876 181.36 106.831 181.659 107.503 182.256C108.185 182.843 108.527 183.755 108.527 184.992V190H106.639ZM103.951 190.112C103.311 190.112 102.751 190.005 102.271 189.792C101.791 189.568 101.417 189.264 101.151 188.88C100.895 188.485 100.767 188.043 100.767 187.552C100.767 187.072 100.879 186.64 101.103 186.256C101.337 185.872 101.716 185.568 102.239 185.344C102.761 185.12 103.455 185.008 104.319 185.008H106.799V186.336H104.463C103.78 186.336 103.321 186.448 103.087 186.672C102.852 186.885 102.735 187.152 102.735 187.472C102.735 187.835 102.879 188.123 103.167 188.336C103.455 188.549 103.855 188.656 104.367 188.656C104.857 188.656 105.295 188.544 105.679 188.32C106.073 188.096 106.356 187.765 106.527 187.328L106.863 188.528C106.671 189.029 106.324 189.419 105.823 189.696C105.332 189.973 104.708 190.112 103.951 190.112ZM111.641 193.216C111.225 193.216 110.809 193.147 110.393 193.008C109.977 192.869 109.63 192.677 109.353 192.432L110.153 190.96C110.356 191.141 110.585 191.285 110.841 191.392C111.097 191.499 111.358 191.552 111.625 191.552C111.988 191.552 112.281 191.461 112.505 191.28C112.729 191.099 112.937 190.795 113.129 190.368L113.625 189.248L113.785 189.008L117.017 181.456H118.937L114.937 190.688C114.67 191.328 114.372 191.835 114.041 192.208C113.721 192.581 113.358 192.843 112.953 192.992C112.558 193.141 112.121 193.216 111.641 193.216ZM113.401 190.304L109.545 181.456H111.625L114.761 188.832L113.401 190.304ZM132.673 178.8H134.753V190H132.673V178.8ZM126.881 190H124.801V178.8H126.881V190ZM132.833 185.2H126.705V183.424H132.833V185.2ZM137.562 190V181.456H139.562V190H137.562ZM138.57 180.048C138.197 180.048 137.887 179.931 137.642 179.696C137.407 179.461 137.29 179.179 137.29 178.848C137.29 178.507 137.407 178.224 137.642 178C137.887 177.765 138.197 177.648 138.57 177.648C138.943 177.648 139.247 177.76 139.482 177.984C139.727 178.197 139.85 178.469 139.85 178.8C139.85 179.152 139.733 179.451 139.498 179.696C139.263 179.931 138.954 180.048 138.57 180.048ZM142.315 186.288L141.931 178.8H144.299L143.899 186.288H142.315ZM143.115 190.112C142.742 190.112 142.432 189.989 142.187 189.744C141.942 189.499 141.819 189.205 141.819 188.864C141.819 188.523 141.942 188.235 142.187 188C142.432 187.755 142.742 187.632 143.115 187.632C143.488 187.632 143.792 187.755 144.027 188C144.262 188.235 144.379 188.523 144.379 188.864C144.379 189.205 144.262 189.499 144.027 189.744C143.792 189.989 143.488 190.112 143.115 190.112Z" fill="black"/>
<circle cx="290.705" cy="220.963" r="52.6404" fill="#E16811"/>
<mask id="mask0_209_4328" style="mask-type:alpha" maskUnits="userSpaceOnUse" x="236" y="168" width="108" height="109">
<rect width="76.3801" height="76.3801" transform="matrix(-0.75992 0.650017 0.650017 0.75992 294.043 168.322)" fill="#D9D9D9"/>
</mask>
<g mask="url(#mask0_209_4328)">
<path d="M304.49 213.828L303.476 226.841C303.412 227.664 303.673 228.418 304.259 229.103C304.845 229.788 305.549 230.163 306.372 230.227C307.195 230.291 307.948 230.03 308.634 229.444C309.319 228.858 309.694 228.153 309.758 227.331L311.367 206.69C311.402 206.241 311.349 205.833 311.208 205.464C311.068 205.096 310.86 204.751 310.584 204.428C310.308 204.106 309.999 203.847 309.657 203.651C309.315 203.455 308.919 203.339 308.471 203.304L287.83 201.695C287.007 201.631 286.253 201.892 285.568 202.478C284.883 203.064 284.508 203.769 284.444 204.591C284.38 205.414 284.641 206.168 285.227 206.853C285.813 207.538 286.517 207.913 287.34 207.977L300.353 208.992L268.429 236.298C267.744 236.884 267.368 237.607 267.301 238.467C267.234 239.327 267.493 240.1 268.079 240.785C268.666 241.47 269.389 241.847 270.249 241.914C271.109 241.981 271.881 241.721 272.567 241.135L304.49 213.828Z" fill="white"/>
</g>
</svg>
