<svg width="1411" height="211" viewBox="0 0 1411 211" fill="none" xmlns="http://www.w3.org/2000/svg">
<path d="M0.666667 115.226C0.666667 118.172 3.05448 120.56 6 120.56C8.94552 120.56 11.3333 118.172 11.3333 115.226C11.3333 112.281 8.94552 109.893 6 109.893C3.05448 109.893 0.666667 112.281 0.666667 115.226ZM406.747 147.248L406.98 148.22L406.747 147.248ZM1001.87 40.3546L1001.9 39.3552L1001.87 40.3546ZM1411 130.724L1404.86 120.943L1399.46 131.149L1411 130.724ZM5.48266 116.082C6.9181 116.95 8.38382 117.805 9.8789 118.647L10.8608 116.905C9.38291 116.072 7.9348 115.227 6.51734 114.37L5.48266 116.082ZM18.972 123.443C21.9815 124.93 25.0882 126.374 28.2861 127.775L29.0886 125.943C25.9171 124.554 22.8384 123.123 19.858 121.65L18.972 123.443ZM37.7719 131.702C40.9067 132.929 44.1159 134.12 47.3948 135.273L48.0587 133.387C44.8006 132.24 41.6131 131.058 38.5009 129.84L37.7719 131.702ZM57.1299 138.529C60.3492 139.552 63.6267 140.542 66.9585 141.501L67.5116 139.579C64.1967 138.625 60.9367 137.64 57.7355 136.623L57.1299 138.529ZM76.8642 144.217C80.1271 145.069 83.4356 145.892 86.7864 146.687L87.2481 144.741C83.9114 143.95 80.6174 143.13 77.3694 142.282L76.8642 144.217ZM96.7696 148.946C100.08 149.659 103.427 150.347 106.806 151.008L107.19 149.045C103.823 148.386 100.489 147.702 97.1911 146.991L96.7696 148.946ZM116.889 152.887C120.233 153.48 123.605 154.048 127.003 154.592L127.32 152.617C123.932 152.075 120.571 151.508 117.238 150.918L116.889 152.887ZM137.112 156.128C140.472 156.613 143.855 157.074 147.257 157.512L147.512 155.529C144.12 155.091 140.748 154.632 137.397 154.149L137.112 156.128ZM157.431 158.75C160.812 159.137 164.209 159.502 167.62 159.846L167.821 157.856C164.418 157.513 161.03 157.149 157.658 156.763L157.431 158.75ZM177.805 160.804C181.197 161.101 184.6 161.376 188.011 161.631L188.16 159.637C184.757 159.383 181.362 159.107 177.979 158.811L177.805 160.804ZM198.232 162.331C201.633 162.543 205.041 162.735 208.453 162.906L208.554 160.908C205.15 160.737 201.75 160.546 198.356 160.335L198.232 162.331ZM218.681 163.358C222.092 163.489 225.505 163.599 228.916 163.69L228.97 161.69C225.565 161.6 222.161 161.49 218.758 161.359L218.681 163.358ZM239.15 163.902C242.567 163.953 245.982 163.984 249.391 163.995L249.398 161.995C245.996 161.984 242.589 161.953 239.18 161.902L239.15 163.902ZM259.633 163.97C263.053 163.941 266.466 163.893 269.868 163.825L269.828 161.825C266.433 161.893 263.029 161.941 259.617 161.97L259.633 163.97ZM280.096 163.56C283.524 163.451 286.939 163.321 290.339 163.172L290.251 161.174C286.859 161.323 283.452 161.452 280.032 161.561L280.096 163.56ZM300.57 162.659C303.992 162.467 307.397 162.253 310.781 162.019L310.643 160.024C307.267 160.257 303.871 160.47 300.457 160.662L300.57 162.659ZM320.981 161.248C324.413 160.965 327.819 160.662 331.199 160.337L331.008 158.346C327.637 158.67 324.24 158.973 320.817 159.255L320.981 161.248ZM341.393 159.282C344.815 158.903 348.205 158.502 351.559 158.078L351.309 156.094C347.964 156.516 344.585 156.917 341.173 157.294L341.393 159.282ZM361.693 156.716C365.11 156.227 368.487 155.715 371.818 155.179L371.501 153.205C368.181 153.739 364.816 154.249 361.41 154.736L361.693 156.716ZM381.937 153.454C385.351 152.837 388.711 152.194 392.014 151.526L391.617 149.565C388.329 150.231 384.982 150.871 381.582 151.485L381.937 153.454ZM402.042 149.375C403.705 148.997 405.352 148.612 406.98 148.22L406.513 146.276C404.892 146.665 403.254 147.048 401.599 147.424L402.042 149.375ZM406.98 148.22C408.555 147.841 410.156 147.453 411.785 147.055L411.31 145.112C409.684 145.51 408.085 145.897 406.513 146.276L406.98 148.22ZM421.634 144.616C424.839 143.814 428.132 142.981 431.509 142.12L431.015 140.182C427.64 141.042 424.35 141.874 421.148 142.676L421.634 144.616ZM441.243 139.624C444.433 138.801 447.689 137.957 451.008 137.094L450.505 135.158C447.186 136.021 443.932 136.865 440.743 137.687L441.243 139.624ZM460.84 134.53C464.046 133.692 467.305 132.838 470.615 131.97L470.107 130.036C466.798 130.903 463.539 131.757 460.335 132.595L460.84 134.53ZM480.364 129.412C483.6 128.563 486.881 127.701 490.204 126.829L489.697 124.895C486.373 125.767 483.092 126.628 479.856 127.478L480.364 129.412ZM499.937 124.278C503.164 123.433 506.428 122.579 509.727 121.717L509.222 119.782C505.922 120.644 502.658 121.498 499.43 122.343L499.937 124.278ZM519.531 119.163C522.752 118.325 526.004 117.481 529.286 116.632L528.785 114.695C525.502 115.545 522.249 116.389 519.028 117.227L519.531 119.163ZM539.135 114.09C542.354 113.262 545.599 112.43 548.87 111.594L548.375 109.656C545.103 110.493 541.857 111.325 538.637 112.153L539.135 114.09ZM558.713 109.088C561.943 108.268 565.197 107.446 568.473 106.622L567.985 104.682C564.708 105.507 561.453 106.33 558.221 107.149L558.713 109.088ZM578.309 104.158C581.552 103.349 584.814 102.54 588.096 101.729L587.616 99.7873C584.333 100.598 581.069 101.409 577.825 102.218L578.309 104.158ZM597.932 99.3118C601.184 98.5168 604.453 97.7218 607.739 96.9274L607.269 94.9834C603.982 95.7782 600.711 96.5736 597.457 97.369L597.932 99.3118ZM617.582 94.5612C620.842 93.7822 624.116 93.0044 627.405 92.2283L626.946 90.2817C623.655 91.0583 620.379 91.8366 617.117 92.6159L617.582 94.5612ZM637.259 89.9178C640.526 89.157 643.805 88.3983 647.096 87.6425L646.648 85.6932C643.355 86.4496 640.074 87.2086 636.805 87.9699L637.259 89.9178ZM656.964 85.3926C660.237 84.6519 663.521 83.9144 666.815 83.1806L666.38 81.2285C663.084 81.9628 659.798 82.7008 656.523 83.4419L656.964 85.3926ZM676.698 80.9968C679.978 80.2782 683.267 79.5637 686.563 78.8538L686.142 76.8986C682.843 77.609 679.552 78.324 676.27 79.0432L676.698 80.9968ZM696.462 76.7418C699.749 76.0471 703.043 75.3575 706.343 74.6734L705.937 72.715C702.634 73.3996 699.338 74.0898 696.049 74.785L696.462 76.7418ZM716.257 72.6394C719.551 71.9707 722.851 71.3079 726.155 70.6516L725.766 68.6899C722.458 69.3468 719.156 70.0101 715.859 70.6794L716.257 72.6394ZM736.083 68.7024C739.385 68.0617 742.692 67.4278 746.001 66.8013L745.629 64.8362C742.317 65.4633 739.007 66.0977 735.702 66.739L736.083 68.7024ZM755.94 64.9444C759.252 64.3339 762.566 63.7312 765.882 63.1367L765.529 61.1681C762.21 61.7631 758.892 62.3665 755.577 62.9776L755.94 64.9444ZM775.833 61.3791C779.154 60.8015 782.475 60.2327 785.797 59.6731L785.465 57.7009C782.139 58.2611 778.814 58.8305 775.491 59.4087L775.833 61.3791ZM795.764 58.0224C799.092 57.4808 802.42 56.949 805.747 56.4273L805.437 54.4515C802.107 54.9737 798.775 55.5062 795.443 56.0484L795.764 58.0224ZM815.732 54.8923C819.068 54.3899 822.401 53.8983 825.732 53.4179L825.447 51.4384C822.112 51.9194 818.774 52.4116 815.434 52.9146L815.732 54.8923ZM835.737 52.0084C839.079 51.5487 842.418 51.101 845.752 50.6657L845.493 48.6825C842.154 49.1185 838.811 49.5668 835.465 50.027L835.737 52.0084ZM855.778 49.3927C859.126 48.9799 862.469 48.5801 865.807 48.1938L865.577 46.2071C862.234 46.5939 858.886 46.9943 855.533 47.4078L855.778 49.3927ZM875.854 47.0703C879.208 46.7087 882.555 46.3613 885.894 46.0287L885.696 44.0386C882.351 44.3717 878.999 44.7196 875.64 45.0818L875.854 47.0703ZM895.963 45.0693C899.322 44.7639 902.673 44.4741 906.014 44.2005L905.851 42.2072C902.503 42.4813 899.147 42.7716 895.782 43.0775L895.963 45.0693ZM916.101 43.422C919.466 43.1785 922.82 42.9522 926.163 42.7436L926.038 40.7475C922.689 40.9565 919.328 41.1833 915.957 41.4273L916.101 43.422ZM936.266 42.1657C939.636 41.9908 942.993 41.8347 946.336 41.6981L946.255 39.6997C942.904 39.8367 939.539 39.9931 936.162 40.1684L936.266 42.1657ZM956.449 41.3433C959.824 41.2448 963.185 41.1671 966.529 41.1106L966.495 39.1109C963.142 39.1675 959.774 39.2454 956.391 39.3442L956.449 41.3433ZM976.642 41.0054C980.022 40.9925 983.385 41.0026 986.729 41.0361L986.749 39.0362C983.396 39.0026 980.024 38.9925 976.634 39.0054L976.642 41.0054ZM996.83 41.2111C998.504 41.2525 1000.17 41.3002 1001.84 41.3541L1001.9 39.3552C1000.23 39.3011 998.558 39.2533 996.88 39.2117L996.83 41.2111ZM1001.84 41.3541C1003.49 41.4079 1005.16 41.4669 1006.82 41.5311L1006.9 39.5326C1005.23 39.4682 1003.56 39.4091 1001.9 39.3552L1001.84 41.3541ZM1016.85 41.9774C1020.17 42.1445 1023.5 42.3312 1026.84 42.5369L1026.96 40.5407C1023.62 40.3346 1020.28 40.1475 1016.95 39.9799L1016.85 41.9774ZM1036.84 43.2069C1040.17 43.4474 1043.5 43.7059 1046.84 43.9817L1047.01 41.9885C1043.66 41.7121 1040.32 41.4531 1036.99 41.2121L1036.84 43.2069ZM1056.82 44.8546C1060.14 45.1616 1063.47 45.485 1066.8 45.8243L1067 43.8346C1063.66 43.4946 1060.33 43.1706 1057 42.8631L1056.82 44.8546ZM1076.77 46.8854C1080.09 47.2535 1083.4 47.6366 1086.72 48.0343L1086.96 46.0485C1083.64 45.6501 1080.31 45.2663 1076.99 44.8976L1076.77 46.8854ZM1096.68 49.269C1099.99 49.6941 1103.3 50.1332 1106.61 50.5855L1106.88 48.6039C1103.57 48.1508 1100.25 47.7111 1096.93 47.2853L1096.68 49.269ZM1116.54 51.9821C1119.85 52.4608 1123.15 52.9521 1126.46 53.4557L1126.76 51.4786C1123.45 50.9742 1120.14 50.4821 1116.83 50.0027L1116.54 51.9821ZM1136.36 55.0054C1139.67 55.5349 1142.97 56.0762 1146.26 56.6286L1146.59 54.6562C1143.29 54.1029 1139.99 53.5609 1136.68 53.0306L1136.36 55.0054ZM1156.13 58.3218C1159.43 58.9004 1162.73 59.4896 1166.01 60.0891L1166.37 58.1216C1163.08 57.5213 1159.78 56.9312 1156.48 56.3518L1156.13 58.3218ZM1175.87 61.9237C1179.16 62.5479 1182.43 63.1818 1185.7 63.8249L1186.09 61.8625C1182.82 61.2186 1179.53 60.5839 1176.24 59.9588L1175.87 61.9237ZM1195.55 65.7983C1198.83 66.4687 1202.1 67.1479 1205.36 67.8351L1205.77 65.8783C1202.51 65.1901 1199.24 64.51 1195.94 63.8387L1195.55 65.7983ZM1215.15 69.9369C1218.44 70.6542 1221.71 71.3792 1224.96 72.1114L1225.4 70.1603C1222.14 69.4271 1218.87 68.7011 1215.58 67.9829L1215.15 69.9369ZM1234.73 74.3473C1237.99 75.1073 1241.24 75.8739 1244.46 76.6465L1244.93 74.7016C1241.7 73.9279 1238.45 73.1602 1235.18 72.3993L1234.73 74.3473ZM1254.23 79.0235C1257.5 79.8314 1260.74 80.6449 1263.96 81.4631L1264.45 79.525C1261.23 78.7055 1257.99 77.8909 1254.71 77.0819L1254.23 79.0235ZM1273.64 83.9649C1276.91 84.8222 1280.14 85.6838 1283.34 86.5489L1283.86 84.6182C1280.66 83.7518 1277.42 82.8889 1274.15 82.0303L1273.64 83.9649ZM1293.03 89.2066C1296.28 90.1133 1299.5 91.0228 1302.67 91.9341L1303.22 90.0119C1300.04 89.0991 1296.82 88.1881 1293.56 87.28L1293.03 89.2066ZM1312.26 94.7343C1315.52 95.698 1318.72 96.6626 1321.87 97.6269L1322.45 95.7146C1319.3 94.7485 1316.09 93.7822 1312.83 92.8168L1312.26 94.7343ZM1331.46 100.615C1334.71 101.644 1337.89 102.671 1341.01 103.696L1341.63 101.796C1338.51 100.769 1335.32 99.7396 1332.06 98.7086L1331.46 100.615ZM1350.52 106.879C1353.75 107.984 1356.91 109.084 1359.98 110.177L1360.65 108.293C1357.57 107.197 1354.41 106.094 1351.16 104.986L1350.52 106.879ZM1369.39 113.608C1372.63 114.816 1375.75 116.013 1378.75 117.195L1379.48 115.334C1376.47 114.147 1373.34 112.946 1370.09 111.735L1369.39 113.608ZM1388.02 120.968C1391.25 122.325 1394.3 123.658 1397.16 124.964L1397.99 123.145C1395.11 121.83 1392.04 120.488 1388.8 119.124L1388.02 120.968Z" fill="#27304C"/>
<mask id="mask0_209_4533" style="mask-type:alpha" maskUnits="userSpaceOnUse" x="141" y="124" width="71" height="71">
<rect x="179.209" y="124.07" width="50" height="50" transform="rotate(49.708 179.209 124.07)" fill="#27304C"/>
</mask>
<g mask="url(#mask0_209_4533)">
<path d="M161.184 158.06L159.654 150.618L162.737 150.872L165.549 155.316L177.001 156.259L173.246 138.138L177.357 138.477L186.33 156.953L197.775 157.97C198.607 158.038 199.309 158.41 199.882 159.086C200.455 159.761 200.707 160.515 200.638 161.347C200.57 162.179 200.198 162.881 199.522 163.454C198.847 164.026 198.093 164.278 197.261 164.21L185.81 163.267L173.935 180.026L169.824 179.688L176.493 162.425L165.041 161.482L161.54 165.407L158.457 165.153L161.184 158.06Z" fill="#27304C"/>
</g>
<mask id="mask1_209_4533" style="mask-type:alpha" maskUnits="userSpaceOnUse" x="506" y="78" width="69" height="69">
<rect x="531.127" y="78.8535" width="50" height="50" transform="rotate(29.045 531.127 78.8535)" fill="#27304C"/>
</mask>
<g mask="url(#mask1_209_4533)">
<path d="M526.256 117.017L522.198 110.593L525.172 109.743L529.371 112.909L540.419 109.75L530.512 94.1205L534.478 92.9867L549.393 107.108L560.461 104.021C561.264 103.791 562.052 103.891 562.826 104.321C563.6 104.751 564.102 105.367 564.332 106.17C564.561 106.973 564.461 107.761 564.031 108.535C563.601 109.309 562.985 109.811 562.182 110.04L551.134 113.199L545.937 133.071L541.971 134.204L542.12 115.699L531.072 118.858L529.181 123.765L526.207 124.616L526.256 117.017Z" fill="#27304C"/>
</g>
<mask id="mask2_209_4533" style="mask-type:alpha" maskUnits="userSpaceOnUse" x="962" y="4" width="72" height="72">
<rect x="1000.01" y="4.76758" width="50" height="50" transform="rotate(48.1475 1000.01 4.76758)" fill="#27304C"/>
</mask>
<g mask="url(#mask2_209_4533)">
<path d="M982.919 39.2354L981.186 31.8371L984.275 32.007L987.207 36.373L998.68 37.0039L994.433 18.9922L998.552 19.2187L1008.02 37.444L1019.49 38.1484C1020.33 38.1943 1021.04 38.5469 1021.63 39.2065C1022.22 39.866 1022.49 40.6125 1022.45 41.446C1022.4 42.2795 1022.05 42.9917 1021.39 43.5824C1020.73 44.1732 1019.98 44.4457 1019.15 44.3998L1007.68 43.7689L996.263 60.8456L992.144 60.6192L998.341 43.1818L986.867 42.5509L983.474 46.5691L980.386 46.3992L982.919 39.2354Z" fill="#27304C"/>
</g>
<mask id="mask3_209_4533" style="mask-type:alpha" maskUnits="userSpaceOnUse" x="1317" y="71" width="68" height="68">
<rect x="1362.79" y="71.6191" width="50" height="50" transform="rotate(64.6242 1362.79 71.6191)" fill="#27304C"/>
</mask>
<g mask="url(#mask3_209_4533)">
<path d="M1336.63 99.8252L1337.07 92.2393L1339.98 93.2783L1341.55 98.2966L1352.38 102.156L1353.41 83.679L1357.3 85.0643L1361.21 105.228L1372.01 109.156C1372.8 109.437 1373.38 109.977 1373.76 110.777C1374.14 111.577 1374.19 112.37 1373.91 113.156C1373.63 113.943 1373.09 114.525 1372.29 114.905C1371.49 115.284 1370.69 115.334 1369.91 115.054L1359.08 111.195L1343.3 124.333L1339.41 122.947L1350.3 107.983L1339.47 104.124L1335.08 107.015L1332.17 105.976L1336.63 99.8252Z" fill="#27304C"/>
</g>
<circle cx="81" cy="145" r="12" fill="#A76A3E"/>
<path d="M59.12 184V171L60.26 172.18H56.16V170H61.72V184H59.12ZM70.2172 169.8C71.4972 169.8 72.5839 170.073 73.4772 170.62C74.3839 171.153 75.0772 171.933 75.5572 172.96C76.0372 173.987 76.2772 175.253 76.2772 176.76C76.2772 178.36 75.9839 179.713 75.3972 180.82C74.8239 181.927 74.0239 182.767 72.9972 183.34C71.9705 183.913 70.7772 184.2 69.4172 184.2C68.7105 184.2 68.0372 184.127 67.3972 183.98C66.7572 183.833 66.2039 183.607 65.7372 183.3L66.6972 181.34C67.0839 181.593 67.5039 181.773 67.9572 181.88C68.4105 181.973 68.8772 182.02 69.3572 182.02C70.6772 182.02 71.7239 181.613 72.4972 180.8C73.2705 179.987 73.6572 178.787 73.6572 177.2C73.6572 176.947 73.6505 176.653 73.6372 176.32C73.6239 175.973 73.5772 175.627 73.4972 175.28L74.2972 176.16C74.0705 176.707 73.7439 177.167 73.3172 177.54C72.8905 177.9 72.3905 178.173 71.8172 178.36C71.2439 178.547 70.6105 178.64 69.9172 178.64C69.0105 178.64 68.1905 178.467 67.4572 178.12C66.7372 177.76 66.1639 177.26 65.7372 176.62C65.3105 175.967 65.0972 175.207 65.0972 174.34C65.0972 173.407 65.3239 172.607 65.7772 171.94C66.2305 171.26 66.8439 170.733 67.6172 170.36C68.4039 169.987 69.2705 169.8 70.2172 169.8ZM70.3572 171.84C69.8239 171.84 69.3505 171.94 68.9372 172.14C68.5239 172.327 68.1972 172.6 67.9572 172.96C67.7305 173.307 67.6172 173.727 67.6172 174.22C67.6172 174.953 67.8705 175.533 68.3772 175.96C68.8839 176.387 69.5639 176.6 70.4172 176.6C70.9772 176.6 71.4705 176.5 71.8972 176.3C72.3239 176.087 72.6572 175.8 72.8972 175.44C73.1372 175.067 73.2572 174.653 73.2572 174.2C73.2572 173.76 73.1439 173.367 72.9172 173.02C72.6905 172.66 72.3639 172.373 71.9372 172.16C71.5105 171.947 70.9839 171.84 70.3572 171.84ZM83.7563 169.8C85.0363 169.8 86.1229 170.073 87.0163 170.62C87.9229 171.153 88.6163 171.933 89.0963 172.96C89.5763 173.987 89.8163 175.253 89.8163 176.76C89.8163 178.36 89.5229 179.713 88.9363 180.82C88.3629 181.927 87.5629 182.767 86.5363 183.34C85.5096 183.913 84.3163 184.2 82.9563 184.2C82.2496 184.2 81.5763 184.127 80.9363 183.98C80.2963 183.833 79.7429 183.607 79.2763 183.3L80.2363 181.34C80.6229 181.593 81.0429 181.773 81.4963 181.88C81.9496 181.973 82.4163 182.02 82.8963 182.02C84.2163 182.02 85.2629 181.613 86.0363 180.8C86.8096 179.987 87.1963 178.787 87.1963 177.2C87.1963 176.947 87.1896 176.653 87.1763 176.32C87.1629 175.973 87.1163 175.627 87.0363 175.28L87.8363 176.16C87.6096 176.707 87.2829 177.167 86.8563 177.54C86.4296 177.9 85.9296 178.173 85.3563 178.36C84.7829 178.547 84.1496 178.64 83.4563 178.64C82.5496 178.64 81.7296 178.467 80.9963 178.12C80.2763 177.76 79.7029 177.26 79.2763 176.62C78.8496 175.967 78.6363 175.207 78.6363 174.34C78.6363 173.407 78.8629 172.607 79.3163 171.94C79.7696 171.26 80.3829 170.733 81.1563 170.36C81.9429 169.987 82.8096 169.8 83.7563 169.8ZM83.8963 171.84C83.3629 171.84 82.8896 171.94 82.4763 172.14C82.0629 172.327 81.7363 172.6 81.4963 172.96C81.2696 173.307 81.1563 173.727 81.1563 174.22C81.1563 174.953 81.4096 175.533 81.9163 175.96C82.4229 176.387 83.1029 176.6 83.9563 176.6C84.5163 176.6 85.0096 176.5 85.4363 176.3C85.8629 176.087 86.1963 175.8 86.4363 175.44C86.6763 175.067 86.7963 174.653 86.7963 174.2C86.7963 173.76 86.6829 173.367 86.4563 173.02C86.2296 172.66 85.9029 172.373 85.4763 172.16C85.0496 171.947 84.5229 171.84 83.8963 171.84ZM98.4153 184.2C97.3086 184.2 96.3086 183.92 95.4153 183.36C94.5353 182.8 93.842 181.987 93.3353 180.92C92.8286 179.84 92.5753 178.533 92.5753 177C92.5753 175.467 92.8286 174.167 93.3353 173.1C93.842 172.02 94.5353 171.2 95.4153 170.64C96.3086 170.08 97.3086 169.8 98.4153 169.8C99.5353 169.8 100.535 170.08 101.415 170.64C102.295 171.2 102.989 172.02 103.495 173.1C104.015 174.167 104.275 175.467 104.275 177C104.275 178.533 104.015 179.84 103.495 180.92C102.989 181.987 102.295 182.8 101.415 183.36C100.535 183.92 99.5353 184.2 98.4153 184.2ZM98.4153 181.94C99.0686 181.94 99.6353 181.767 100.115 181.42C100.595 181.06 100.969 180.513 101.235 179.78C101.515 179.047 101.655 178.12 101.655 177C101.655 175.867 101.515 174.94 101.235 174.22C100.969 173.487 100.595 172.947 100.115 172.6C99.6353 172.24 99.0686 172.06 98.4153 172.06C97.7886 172.06 97.2286 172.24 96.7353 172.6C96.2553 172.947 95.8753 173.487 95.5953 174.22C95.3286 174.94 95.1953 175.867 95.1953 177C95.1953 178.12 95.3286 179.047 95.5953 179.78C95.8753 180.513 96.2553 181.06 96.7353 181.42C97.2286 181.767 97.7886 181.94 98.4153 181.94Z" fill="#EDAF85"/>
<path d="M221.12 202V189L222.26 190.18H218.16V188H223.72V202H221.12ZM232.217 187.8C233.497 187.8 234.584 188.073 235.477 188.62C236.384 189.153 237.077 189.933 237.557 190.96C238.037 191.987 238.277 193.253 238.277 194.76C238.277 196.36 237.984 197.713 237.397 198.82C236.824 199.927 236.024 200.767 234.997 201.34C233.971 201.913 232.777 202.2 231.417 202.2C230.711 202.2 230.037 202.127 229.397 201.98C228.757 201.833 228.204 201.607 227.737 201.3L228.697 199.34C229.084 199.593 229.504 199.773 229.957 199.88C230.411 199.973 230.877 200.02 231.357 200.02C232.677 200.02 233.724 199.613 234.497 198.8C235.271 197.987 235.657 196.787 235.657 195.2C235.657 194.947 235.651 194.653 235.637 194.32C235.624 193.973 235.577 193.627 235.497 193.28L236.297 194.16C236.071 194.707 235.744 195.167 235.317 195.54C234.891 195.9 234.391 196.173 233.817 196.36C233.244 196.547 232.611 196.64 231.917 196.64C231.011 196.64 230.191 196.467 229.457 196.12C228.737 195.76 228.164 195.26 227.737 194.62C227.311 193.967 227.097 193.207 227.097 192.34C227.097 191.407 227.324 190.607 227.777 189.94C228.231 189.26 228.844 188.733 229.617 188.36C230.404 187.987 231.271 187.8 232.217 187.8ZM232.357 189.84C231.824 189.84 231.351 189.94 230.937 190.14C230.524 190.327 230.197 190.6 229.957 190.96C229.731 191.307 229.617 191.727 229.617 192.22C229.617 192.953 229.871 193.533 230.377 193.96C230.884 194.387 231.564 194.6 232.417 194.6C232.977 194.6 233.471 194.5 233.897 194.3C234.324 194.087 234.657 193.8 234.897 193.44C235.137 193.067 235.257 192.653 235.257 192.2C235.257 191.76 235.144 191.367 234.917 191.02C234.691 190.66 234.364 190.373 233.937 190.16C233.511 189.947 232.984 189.84 232.357 189.84ZM245.756 187.8C247.036 187.8 248.123 188.073 249.016 188.62C249.923 189.153 250.616 189.933 251.096 190.96C251.576 191.987 251.816 193.253 251.816 194.76C251.816 196.36 251.523 197.713 250.936 198.82C250.363 199.927 249.563 200.767 248.536 201.34C247.51 201.913 246.316 202.2 244.956 202.2C244.25 202.2 243.576 202.127 242.936 201.98C242.296 201.833 241.743 201.607 241.276 201.3L242.236 199.34C242.623 199.593 243.043 199.773 243.496 199.88C243.95 199.973 244.416 200.02 244.896 200.02C246.216 200.02 247.263 199.613 248.036 198.8C248.81 197.987 249.196 196.787 249.196 195.2C249.196 194.947 249.19 194.653 249.176 194.32C249.163 193.973 249.116 193.627 249.036 193.28L249.836 194.16C249.61 194.707 249.283 195.167 248.856 195.54C248.43 195.9 247.93 196.173 247.356 196.36C246.783 196.547 246.15 196.64 245.456 196.64C244.55 196.64 243.73 196.467 242.996 196.12C242.276 195.76 241.703 195.26 241.276 194.62C240.85 193.967 240.636 193.207 240.636 192.34C240.636 191.407 240.863 190.607 241.316 189.94C241.77 189.26 242.383 188.733 243.156 188.36C243.943 187.987 244.81 187.8 245.756 187.8ZM245.896 189.84C245.363 189.84 244.89 189.94 244.476 190.14C244.063 190.327 243.736 190.6 243.496 190.96C243.27 191.307 243.156 191.727 243.156 192.22C243.156 192.953 243.41 193.533 243.916 193.96C244.423 194.387 245.103 194.6 245.956 194.6C246.516 194.6 247.01 194.5 247.436 194.3C247.863 194.087 248.196 193.8 248.436 193.44C248.676 193.067 248.796 192.653 248.796 192.2C248.796 191.76 248.683 191.367 248.456 191.02C248.23 190.66 247.903 190.373 247.476 190.16C247.05 189.947 246.523 189.84 245.896 189.84ZM259.215 202.2C258.229 202.2 257.262 202.06 256.315 201.78C255.382 201.487 254.595 201.087 253.955 200.58L255.055 198.56C255.562 198.973 256.175 199.307 256.895 199.56C257.629 199.813 258.389 199.94 259.175 199.94C260.095 199.94 260.815 199.747 261.335 199.36C261.869 198.973 262.135 198.453 262.135 197.8C262.135 197.36 262.022 196.973 261.795 196.64C261.582 196.307 261.195 196.053 260.635 195.88C260.089 195.707 259.335 195.62 258.375 195.62H254.995L255.715 188H263.935V190.18H256.675L258.035 188.94L257.495 194.64L256.135 193.42H258.955C260.342 193.42 261.455 193.607 262.295 193.98C263.149 194.34 263.769 194.847 264.155 195.5C264.555 196.14 264.755 196.873 264.755 197.7C264.755 198.513 264.555 199.26 264.155 199.94C263.755 200.62 263.142 201.167 262.315 201.58C261.502 201.993 260.469 202.2 259.215 202.2Z" fill="#E16811"/>
<path d="M322.7 198V196.26L328.26 190.98C328.727 190.54 329.073 190.153 329.3 189.82C329.527 189.487 329.673 189.18 329.74 188.9C329.82 188.607 329.86 188.333 329.86 188.08C329.86 187.44 329.64 186.947 329.2 186.6C328.76 186.24 328.113 186.06 327.26 186.06C326.58 186.06 325.96 186.18 325.4 186.42C324.853 186.66 324.38 187.027 323.98 187.52L322.16 186.12C322.707 185.387 323.44 184.82 324.36 184.42C325.293 184.007 326.333 183.8 327.48 183.8C328.493 183.8 329.373 183.967 330.12 184.3C330.88 184.62 331.46 185.08 331.86 185.68C332.273 186.28 332.48 186.993 332.48 187.82C332.48 188.273 332.42 188.727 332.3 189.18C332.18 189.62 331.953 190.087 331.62 190.58C331.287 191.073 330.8 191.627 330.16 192.24L325.38 196.78L324.84 195.8H333.02V198H322.7ZM341.361 198.2C340.254 198.2 339.254 197.92 338.361 197.36C337.481 196.8 336.787 195.987 336.281 194.92C335.774 193.84 335.521 192.533 335.521 191C335.521 189.467 335.774 188.167 336.281 187.1C336.787 186.02 337.481 185.2 338.361 184.64C339.254 184.08 340.254 183.8 341.361 183.8C342.481 183.8 343.481 184.08 344.361 184.64C345.241 185.2 345.934 186.02 346.441 187.1C346.961 188.167 347.221 189.467 347.221 191C347.221 192.533 346.961 193.84 346.441 194.92C345.934 195.987 345.241 196.8 344.361 197.36C343.481 197.92 342.481 198.2 341.361 198.2ZM341.361 195.94C342.014 195.94 342.581 195.767 343.061 195.42C343.541 195.06 343.914 194.513 344.181 193.78C344.461 193.047 344.601 192.12 344.601 191C344.601 189.867 344.461 188.94 344.181 188.22C343.914 187.487 343.541 186.947 343.061 186.6C342.581 186.24 342.014 186.06 341.361 186.06C340.734 186.06 340.174 186.24 339.681 186.6C339.201 186.947 338.821 187.487 338.541 188.22C338.274 188.94 338.141 189.867 338.141 191C338.141 192.12 338.274 193.047 338.541 193.78C338.821 194.513 339.201 195.06 339.681 195.42C340.174 195.767 340.734 195.94 341.361 195.94ZM355.818 198.2C354.711 198.2 353.711 197.92 352.818 197.36C351.938 196.8 351.244 195.987 350.738 194.92C350.231 193.84 349.978 192.533 349.978 191C349.978 189.467 350.231 188.167 350.738 187.1C351.244 186.02 351.938 185.2 352.818 184.64C353.711 184.08 354.711 183.8 355.818 183.8C356.938 183.8 357.938 184.08 358.818 184.64C359.698 185.2 360.391 186.02 360.898 187.1C361.418 188.167 361.678 189.467 361.678 191C361.678 192.533 361.418 193.84 360.898 194.92C360.391 195.987 359.698 196.8 358.818 197.36C357.938 197.92 356.938 198.2 355.818 198.2ZM355.818 195.94C356.471 195.94 357.038 195.767 357.518 195.42C357.998 195.06 358.371 194.513 358.638 193.78C358.918 193.047 359.058 192.12 359.058 191C359.058 189.867 358.918 188.94 358.638 188.22C358.371 187.487 357.998 186.947 357.518 186.6C357.038 186.24 356.471 186.06 355.818 186.06C355.191 186.06 354.631 186.24 354.138 186.6C353.658 186.947 353.278 187.487 352.998 188.22C352.731 188.94 352.598 189.867 352.598 191C352.598 192.12 352.731 193.047 352.998 193.78C353.278 194.513 353.658 195.06 354.138 195.42C354.631 195.767 355.191 195.94 355.818 195.94ZM370.275 198.2C369.168 198.2 368.168 197.92 367.275 197.36C366.395 196.8 365.701 195.987 365.195 194.92C364.688 193.84 364.435 192.533 364.435 191C364.435 189.467 364.688 188.167 365.195 187.1C365.701 186.02 366.395 185.2 367.275 184.64C368.168 184.08 369.168 183.8 370.275 183.8C371.395 183.8 372.395 184.08 373.275 184.64C374.155 185.2 374.848 186.02 375.355 187.1C375.875 188.167 376.135 189.467 376.135 191C376.135 192.533 375.875 193.84 375.355 194.92C374.848 195.987 374.155 196.8 373.275 197.36C372.395 197.92 371.395 198.2 370.275 198.2ZM370.275 195.94C370.928 195.94 371.495 195.767 371.975 195.42C372.455 195.06 372.828 194.513 373.095 193.78C373.375 193.047 373.515 192.12 373.515 191C373.515 189.867 373.375 188.94 373.095 188.22C372.828 187.487 372.455 186.947 371.975 186.6C371.495 186.24 370.928 186.06 370.275 186.06C369.648 186.06 369.088 186.24 368.595 186.6C368.115 186.947 367.735 187.487 367.455 188.22C367.188 188.94 367.055 189.867 367.055 191C367.055 192.12 367.188 193.047 367.455 193.78C367.735 194.513 368.115 195.06 368.595 195.42C369.088 195.767 369.648 195.94 370.275 195.94Z" fill="#EDAF85"/>
<rect x="340" y="156.672" width="14" height="6" transform="rotate(-15.2041 340 156.672)" fill="#F9F7F8"/>
<circle cx="347" cy="157" r="12" fill="#E16811" fill-opacity="0.5"/>
<rect x="237" y="161.672" width="14" height="6" transform="rotate(-15.2041 237 161.672)" fill="#F9F7F8"/>
<circle cx="244" cy="162" r="12" fill="#E16811"/>
<path d="M458.7 170V168.26L464.26 162.98C464.727 162.54 465.073 162.153 465.3 161.82C465.527 161.487 465.673 161.18 465.74 160.9C465.82 160.607 465.86 160.333 465.86 160.08C465.86 159.44 465.64 158.947 465.2 158.6C464.76 158.24 464.113 158.06 463.26 158.06C462.58 158.06 461.96 158.18 461.4 158.42C460.853 158.66 460.38 159.027 459.98 159.52L458.16 158.12C458.707 157.387 459.44 156.82 460.36 156.42C461.293 156.007 462.333 155.8 463.48 155.8C464.493 155.8 465.373 155.967 466.12 156.3C466.88 156.62 467.46 157.08 467.86 157.68C468.273 158.28 468.48 158.993 468.48 159.82C468.48 160.273 468.42 160.727 468.3 161.18C468.18 161.62 467.953 162.087 467.62 162.58C467.287 163.073 466.8 163.627 466.16 164.24L461.38 168.78L460.84 167.8H469.02V170H458.7ZM477.361 170.2C476.254 170.2 475.254 169.92 474.361 169.36C473.481 168.8 472.787 167.987 472.281 166.92C471.774 165.84 471.521 164.533 471.521 163C471.521 161.467 471.774 160.167 472.281 159.1C472.787 158.02 473.481 157.2 474.361 156.64C475.254 156.08 476.254 155.8 477.361 155.8C478.481 155.8 479.481 156.08 480.361 156.64C481.241 157.2 481.934 158.02 482.441 159.1C482.961 160.167 483.221 161.467 483.221 163C483.221 164.533 482.961 165.84 482.441 166.92C481.934 167.987 481.241 168.8 480.361 169.36C479.481 169.92 478.481 170.2 477.361 170.2ZM477.361 167.94C478.014 167.94 478.581 167.767 479.061 167.42C479.541 167.06 479.914 166.513 480.181 165.78C480.461 165.047 480.601 164.12 480.601 163C480.601 161.867 480.461 160.94 480.181 160.22C479.914 159.487 479.541 158.947 479.061 158.6C478.581 158.24 478.014 158.06 477.361 158.06C476.734 158.06 476.174 158.24 475.681 158.6C475.201 158.947 474.821 159.487 474.541 160.22C474.274 160.94 474.141 161.867 474.141 163C474.141 164.12 474.274 165.047 474.541 165.78C474.821 166.513 475.201 167.06 475.681 167.42C476.174 167.767 476.734 167.94 477.361 167.94ZM491.818 170.2C490.711 170.2 489.711 169.92 488.818 169.36C487.938 168.8 487.244 167.987 486.738 166.92C486.231 165.84 485.978 164.533 485.978 163C485.978 161.467 486.231 160.167 486.738 159.1C487.244 158.02 487.938 157.2 488.818 156.64C489.711 156.08 490.711 155.8 491.818 155.8C492.938 155.8 493.938 156.08 494.818 156.64C495.698 157.2 496.391 158.02 496.898 159.1C497.418 160.167 497.678 161.467 497.678 163C497.678 164.533 497.418 165.84 496.898 166.92C496.391 167.987 495.698 168.8 494.818 169.36C493.938 169.92 492.938 170.2 491.818 170.2ZM491.818 167.94C492.471 167.94 493.038 167.767 493.518 167.42C493.998 167.06 494.371 166.513 494.638 165.78C494.918 165.047 495.058 164.12 495.058 163C495.058 161.867 494.918 160.94 494.638 160.22C494.371 159.487 493.998 158.947 493.518 158.6C493.038 158.24 492.471 158.06 491.818 158.06C491.191 158.06 490.631 158.24 490.138 158.6C489.658 158.947 489.278 159.487 488.998 160.22C488.731 160.94 488.598 161.867 488.598 163C488.598 164.12 488.731 165.047 488.998 165.78C489.278 166.513 489.658 167.06 490.138 167.42C490.631 167.767 491.191 167.94 491.818 167.94ZM500.235 166.82V165.02L507.135 156H509.915L503.115 165.02L501.815 164.62H512.915V166.82H500.235ZM507.915 170V166.82L507.995 164.62V161.8H510.435V170H507.915Z" fill="#EDAF85"/>
<rect x="478.607" y="126.404" width="12" height="5" transform="rotate(-12.8048 478.607 126.404)" fill="#F9F7F8"/>
<circle cx="485.012" cy="127.012" r="12" transform="rotate(-5.0611 485.012 127.012)" fill="#E16811" fill-opacity="0.5"/>
<path d="M576.7 147V145.26L582.26 139.98C582.727 139.54 583.073 139.153 583.3 138.82C583.527 138.487 583.673 138.18 583.74 137.9C583.82 137.607 583.86 137.333 583.86 137.08C583.86 136.44 583.64 135.947 583.2 135.6C582.76 135.24 582.113 135.06 581.26 135.06C580.58 135.06 579.96 135.18 579.4 135.42C578.853 135.66 578.38 136.027 577.98 136.52L576.16 135.12C576.707 134.387 577.44 133.82 578.36 133.42C579.293 133.007 580.333 132.8 581.48 132.8C582.493 132.8 583.373 132.967 584.12 133.3C584.88 133.62 585.46 134.08 585.86 134.68C586.273 135.28 586.48 135.993 586.48 136.82C586.48 137.273 586.42 137.727 586.3 138.18C586.18 138.62 585.953 139.087 585.62 139.58C585.287 140.073 584.8 140.627 584.16 141.24L579.38 145.78L578.84 144.8H587.02V147H576.7ZM595.361 147.2C594.254 147.2 593.254 146.92 592.361 146.36C591.481 145.8 590.787 144.987 590.281 143.92C589.774 142.84 589.521 141.533 589.521 140C589.521 138.467 589.774 137.167 590.281 136.1C590.787 135.02 591.481 134.2 592.361 133.64C593.254 133.08 594.254 132.8 595.361 132.8C596.481 132.8 597.481 133.08 598.361 133.64C599.241 134.2 599.934 135.02 600.441 136.1C600.961 137.167 601.221 138.467 601.221 140C601.221 141.533 600.961 142.84 600.441 143.92C599.934 144.987 599.241 145.8 598.361 146.36C597.481 146.92 596.481 147.2 595.361 147.2ZM595.361 144.94C596.014 144.94 596.581 144.767 597.061 144.42C597.541 144.06 597.914 143.513 598.181 142.78C598.461 142.047 598.601 141.12 598.601 140C598.601 138.867 598.461 137.94 598.181 137.22C597.914 136.487 597.541 135.947 597.061 135.6C596.581 135.24 596.014 135.06 595.361 135.06C594.734 135.06 594.174 135.24 593.681 135.6C593.201 135.947 592.821 136.487 592.541 137.22C592.274 137.94 592.141 138.867 592.141 140C592.141 141.12 592.274 142.047 592.541 142.78C592.821 143.513 593.201 144.06 593.681 144.42C594.174 144.767 594.734 144.94 595.361 144.94ZM609.818 147.2C608.711 147.2 607.711 146.92 606.818 146.36C605.938 145.8 605.244 144.987 604.738 143.92C604.231 142.84 603.978 141.533 603.978 140C603.978 138.467 604.231 137.167 604.738 136.1C605.244 135.02 605.938 134.2 606.818 133.64C607.711 133.08 608.711 132.8 609.818 132.8C610.938 132.8 611.938 133.08 612.818 133.64C613.698 134.2 614.391 135.02 614.898 136.1C615.418 137.167 615.678 138.467 615.678 140C615.678 141.533 615.418 142.84 614.898 143.92C614.391 144.987 613.698 145.8 612.818 146.36C611.938 146.92 610.938 147.2 609.818 147.2ZM609.818 144.94C610.471 144.94 611.038 144.767 611.518 144.42C611.998 144.06 612.371 143.513 612.638 142.78C612.918 142.047 613.058 141.12 613.058 140C613.058 138.867 612.918 137.94 612.638 137.22C612.371 136.487 611.998 135.947 611.518 135.6C611.038 135.24 610.471 135.06 609.818 135.06C609.191 135.06 608.631 135.24 608.138 135.6C607.658 135.947 607.278 136.487 606.998 137.22C606.731 137.94 606.598 138.867 606.598 140C606.598 141.12 606.731 142.047 606.998 142.78C607.278 143.513 607.658 144.06 608.138 144.42C608.631 144.767 609.191 144.94 609.818 144.94ZM623.075 147.2C622.088 147.2 621.121 147.06 620.175 146.78C619.241 146.487 618.455 146.087 617.815 145.58L618.915 143.56C619.421 143.973 620.035 144.307 620.755 144.56C621.488 144.813 622.248 144.94 623.035 144.94C623.955 144.94 624.675 144.747 625.195 144.36C625.728 143.973 625.995 143.453 625.995 142.8C625.995 142.36 625.881 141.973 625.655 141.64C625.441 141.307 625.055 141.053 624.495 140.88C623.948 140.707 623.195 140.62 622.235 140.62H618.855L619.575 133H627.795V135.18H620.535L621.895 133.94L621.355 139.64L619.995 138.42H622.815C624.201 138.42 625.315 138.607 626.155 138.98C627.008 139.34 627.628 139.847 628.015 140.5C628.415 141.14 628.615 141.873 628.615 142.7C628.615 143.513 628.415 144.26 628.015 144.94C627.615 145.62 627.001 146.167 626.175 146.58C625.361 146.993 624.328 147.2 623.075 147.2Z" fill="#EDAF85"/>
<rect x="595.607" y="95.4043" width="12" height="5" transform="rotate(-12.8048 595.607 95.4043)" fill="#F9F7F8"/>
<circle cx="602.012" cy="96.0118" r="12" transform="rotate(-5.0611 602.012 96.0118)" fill="#E16811" fill-opacity="0.5"/>
<path d="M675.7 125V123.26L681.26 117.98C681.727 117.54 682.073 117.153 682.3 116.82C682.527 116.487 682.673 116.18 682.74 115.9C682.82 115.607 682.86 115.333 682.86 115.08C682.86 114.44 682.64 113.947 682.2 113.6C681.76 113.24 681.113 113.06 680.26 113.06C679.58 113.06 678.96 113.18 678.4 113.42C677.853 113.66 677.38 114.027 676.98 114.52L675.16 113.12C675.707 112.387 676.44 111.82 677.36 111.42C678.293 111.007 679.333 110.8 680.48 110.8C681.493 110.8 682.373 110.967 683.12 111.3C683.88 111.62 684.46 112.08 684.86 112.68C685.273 113.28 685.48 113.993 685.48 114.82C685.48 115.273 685.42 115.727 685.3 116.18C685.18 116.62 684.953 117.087 684.62 117.58C684.287 118.073 683.8 118.627 683.16 119.24L678.38 123.78L677.84 122.8H686.02V125H675.7ZM694.361 125.2C693.254 125.2 692.254 124.92 691.361 124.36C690.481 123.8 689.787 122.987 689.281 121.92C688.774 120.84 688.521 119.533 688.521 118C688.521 116.467 688.774 115.167 689.281 114.1C689.787 113.02 690.481 112.2 691.361 111.64C692.254 111.08 693.254 110.8 694.361 110.8C695.481 110.8 696.481 111.08 697.361 111.64C698.241 112.2 698.934 113.02 699.441 114.1C699.961 115.167 700.221 116.467 700.221 118C700.221 119.533 699.961 120.84 699.441 121.92C698.934 122.987 698.241 123.8 697.361 124.36C696.481 124.92 695.481 125.2 694.361 125.2ZM694.361 122.94C695.014 122.94 695.581 122.767 696.061 122.42C696.541 122.06 696.914 121.513 697.181 120.78C697.461 120.047 697.601 119.12 697.601 118C697.601 116.867 697.461 115.94 697.181 115.22C696.914 114.487 696.541 113.947 696.061 113.6C695.581 113.24 695.014 113.06 694.361 113.06C693.734 113.06 693.174 113.24 692.681 113.6C692.201 113.947 691.821 114.487 691.541 115.22C691.274 115.94 691.141 116.867 691.141 118C691.141 119.12 691.274 120.047 691.541 120.78C691.821 121.513 692.201 122.06 692.681 122.42C693.174 122.767 693.734 122.94 694.361 122.94ZM708.818 125.2C707.711 125.2 706.711 124.92 705.818 124.36C704.938 123.8 704.244 122.987 703.738 121.92C703.231 120.84 702.978 119.533 702.978 118C702.978 116.467 703.231 115.167 703.738 114.1C704.244 113.02 704.938 112.2 705.818 111.64C706.711 111.08 707.711 110.8 708.818 110.8C709.938 110.8 710.938 111.08 711.818 111.64C712.698 112.2 713.391 113.02 713.898 114.1C714.418 115.167 714.678 116.467 714.678 118C714.678 119.533 714.418 120.84 713.898 121.92C713.391 122.987 712.698 123.8 711.818 124.36C710.938 124.92 709.938 125.2 708.818 125.2ZM708.818 122.94C709.471 122.94 710.038 122.767 710.518 122.42C710.998 122.06 711.371 121.513 711.638 120.78C711.918 120.047 712.058 119.12 712.058 118C712.058 116.867 711.918 115.94 711.638 115.22C711.371 114.487 710.998 113.947 710.518 113.6C710.038 113.24 709.471 113.06 708.818 113.06C708.191 113.06 707.631 113.24 707.138 113.6C706.658 113.947 706.278 114.487 705.998 115.22C705.731 115.94 705.598 116.867 705.598 118C705.598 119.12 705.731 120.047 705.998 120.78C706.278 121.513 706.658 122.06 707.138 122.42C707.631 122.767 708.191 122.94 708.818 122.94ZM723.495 125.2C722.228 125.2 721.141 124.933 720.235 124.4C719.328 123.853 718.635 123.067 718.155 122.04C717.675 121.013 717.435 119.747 717.435 118.24C717.435 116.64 717.721 115.287 718.295 114.18C718.881 113.073 719.688 112.233 720.715 111.66C721.755 111.087 722.948 110.8 724.295 110.8C725.001 110.8 725.675 110.873 726.315 111.02C726.968 111.167 727.521 111.393 727.975 111.7L727.015 113.66C726.628 113.407 726.208 113.233 725.755 113.14C725.315 113.033 724.848 112.98 724.355 112.98C723.035 112.98 721.988 113.387 721.215 114.2C720.441 115.013 720.055 116.213 720.055 117.8C720.055 118.053 720.061 118.353 720.075 118.7C720.088 119.033 720.135 119.373 720.215 119.72L719.415 118.84C719.655 118.293 719.981 117.84 720.395 117.48C720.821 117.107 721.321 116.827 721.895 116.64C722.481 116.453 723.115 116.36 723.795 116.36C724.715 116.36 725.535 116.54 726.255 116.9C726.975 117.247 727.548 117.747 727.975 118.4C728.401 119.04 728.615 119.793 728.615 120.66C728.615 121.58 728.388 122.38 727.935 123.06C727.481 123.74 726.868 124.267 726.095 124.64C725.321 125.013 724.455 125.2 723.495 125.2ZM723.355 123.16C723.888 123.16 724.361 123.067 724.775 122.88C725.188 122.68 725.508 122.4 725.735 122.04C725.975 121.68 726.095 121.26 726.095 120.78C726.095 120.047 725.841 119.467 725.335 119.04C724.828 118.613 724.148 118.4 723.295 118.4C722.735 118.4 722.241 118.507 721.815 118.72C721.401 118.92 721.068 119.2 720.815 119.56C720.575 119.92 720.455 120.333 720.455 120.8C720.455 121.227 720.568 121.62 720.795 121.98C721.021 122.34 721.348 122.627 721.775 122.84C722.215 123.053 722.741 123.16 723.355 123.16Z" fill="#EDAF85"/>
<rect x="694.607" y="74.4043" width="12" height="5" transform="rotate(-12.8048 694.607 74.4043)" fill="#F9F7F8"/>
<circle cx="701.012" cy="75.0118" r="12" transform="rotate(-5.0611 701.012 75.0118)" fill="#E16811" fill-opacity="0.5"/>
<path d="M762.7 108V106.26L768.26 100.98C768.727 100.54 769.073 100.153 769.3 99.82C769.527 99.4867 769.673 99.18 769.74 98.9C769.82 98.6067 769.86 98.3333 769.86 98.08C769.86 97.44 769.64 96.9467 769.2 96.6C768.76 96.24 768.113 96.06 767.26 96.06C766.58 96.06 765.96 96.18 765.4 96.42C764.853 96.66 764.38 97.0267 763.98 97.52L762.16 96.12C762.707 95.3867 763.44 94.82 764.36 94.42C765.293 94.0067 766.333 93.8 767.48 93.8C768.493 93.8 769.373 93.9667 770.12 94.3C770.88 94.62 771.46 95.08 771.86 95.68C772.273 96.28 772.48 96.9933 772.48 97.82C772.48 98.2733 772.42 98.7267 772.3 99.18C772.18 99.62 771.953 100.087 771.62 100.58C771.287 101.073 770.8 101.627 770.16 102.24L765.38 106.78L764.84 105.8H773.02V108H762.7ZM781.361 108.2C780.254 108.2 779.254 107.92 778.361 107.36C777.481 106.8 776.787 105.987 776.281 104.92C775.774 103.84 775.521 102.533 775.521 101C775.521 99.4667 775.774 98.1667 776.281 97.1C776.787 96.02 777.481 95.2 778.361 94.64C779.254 94.08 780.254 93.8 781.361 93.8C782.481 93.8 783.481 94.08 784.361 94.64C785.241 95.2 785.934 96.02 786.441 97.1C786.961 98.1667 787.221 99.4667 787.221 101C787.221 102.533 786.961 103.84 786.441 104.92C785.934 105.987 785.241 106.8 784.361 107.36C783.481 107.92 782.481 108.2 781.361 108.2ZM781.361 105.94C782.014 105.94 782.581 105.767 783.061 105.42C783.541 105.06 783.914 104.513 784.181 103.78C784.461 103.047 784.601 102.12 784.601 101C784.601 99.8667 784.461 98.94 784.181 98.22C783.914 97.4867 783.541 96.9467 783.061 96.6C782.581 96.24 782.014 96.06 781.361 96.06C780.734 96.06 780.174 96.24 779.681 96.6C779.201 96.9467 778.821 97.4867 778.541 98.22C778.274 98.94 778.141 99.8667 778.141 101C778.141 102.12 778.274 103.047 778.541 103.78C778.821 104.513 779.201 105.06 779.681 105.42C780.174 105.767 780.734 105.94 781.361 105.94ZM795.818 108.2C794.711 108.2 793.711 107.92 792.818 107.36C791.938 106.8 791.244 105.987 790.738 104.92C790.231 103.84 789.978 102.533 789.978 101C789.978 99.4667 790.231 98.1667 790.738 97.1C791.244 96.02 791.938 95.2 792.818 94.64C793.711 94.08 794.711 93.8 795.818 93.8C796.938 93.8 797.938 94.08 798.818 94.64C799.698 95.2 800.391 96.02 800.898 97.1C801.418 98.1667 801.678 99.4667 801.678 101C801.678 102.533 801.418 103.84 800.898 104.92C800.391 105.987 799.698 106.8 798.818 107.36C797.938 107.92 796.938 108.2 795.818 108.2ZM795.818 105.94C796.471 105.94 797.038 105.767 797.518 105.42C797.998 105.06 798.371 104.513 798.638 103.78C798.918 103.047 799.058 102.12 799.058 101C799.058 99.8667 798.918 98.94 798.638 98.22C798.371 97.4867 797.998 96.9467 797.518 96.6C797.038 96.24 796.471 96.06 795.818 96.06C795.191 96.06 794.631 96.24 794.138 96.6C793.658 96.9467 793.278 97.4867 792.998 98.22C792.731 98.94 792.598 99.8667 792.598 101C792.598 102.12 792.731 103.047 792.998 103.78C793.278 104.513 793.658 105.06 794.138 105.42C794.631 105.767 795.191 105.94 795.818 105.94ZM806.677 108L812.457 95.04L813.137 96.2H805.197L806.437 94.94V98.58H804.017V94H814.897V95.74L809.457 108H806.677Z" fill="#EDAF85"/>
<rect x="774.607" y="57.4043" width="12" height="5" transform="rotate(-12.8048 774.607 57.4043)" fill="#F9F7F8"/>
<circle cx="781.012" cy="58.0118" r="12" transform="rotate(-5.0611 781.012 58.0118)" fill="#E16811" fill-opacity="0.5"/>
<path d="M835.7 95V93.26L841.26 87.98C841.727 87.54 842.073 87.1533 842.3 86.82C842.527 86.4867 842.673 86.18 842.74 85.9C842.82 85.6067 842.86 85.3333 842.86 85.08C842.86 84.44 842.64 83.9467 842.2 83.6C841.76 83.24 841.113 83.06 840.26 83.06C839.58 83.06 838.96 83.18 838.4 83.42C837.853 83.66 837.38 84.0267 836.98 84.52L835.16 83.12C835.707 82.3867 836.44 81.82 837.36 81.42C838.293 81.0067 839.333 80.8 840.48 80.8C841.493 80.8 842.373 80.9667 843.12 81.3C843.88 81.62 844.46 82.08 844.86 82.68C845.273 83.28 845.48 83.9933 845.48 84.82C845.48 85.2733 845.42 85.7267 845.3 86.18C845.18 86.62 844.953 87.0867 844.62 87.58C844.287 88.0733 843.8 88.6267 843.16 89.24L838.38 93.78L837.84 92.8H846.02V95H835.7ZM854.361 95.2C853.254 95.2 852.254 94.92 851.361 94.36C850.481 93.8 849.787 92.9867 849.281 91.92C848.774 90.84 848.521 89.5333 848.521 88C848.521 86.4667 848.774 85.1667 849.281 84.1C849.787 83.02 850.481 82.2 851.361 81.64C852.254 81.08 853.254 80.8 854.361 80.8C855.481 80.8 856.481 81.08 857.361 81.64C858.241 82.2 858.934 83.02 859.441 84.1C859.961 85.1667 860.221 86.4667 860.221 88C860.221 89.5333 859.961 90.84 859.441 91.92C858.934 92.9867 858.241 93.8 857.361 94.36C856.481 94.92 855.481 95.2 854.361 95.2ZM854.361 92.94C855.014 92.94 855.581 92.7667 856.061 92.42C856.541 92.06 856.914 91.5133 857.181 90.78C857.461 90.0467 857.601 89.12 857.601 88C857.601 86.8667 857.461 85.94 857.181 85.22C856.914 84.4867 856.541 83.9467 856.061 83.6C855.581 83.24 855.014 83.06 854.361 83.06C853.734 83.06 853.174 83.24 852.681 83.6C852.201 83.9467 851.821 84.4867 851.541 85.22C851.274 85.94 851.141 86.8667 851.141 88C851.141 89.12 851.274 90.0467 851.541 90.78C851.821 91.5133 852.201 92.06 852.681 92.42C853.174 92.7667 853.734 92.94 854.361 92.94ZM868.818 95.2C867.711 95.2 866.711 94.92 865.818 94.36C864.938 93.8 864.244 92.9867 863.738 91.92C863.231 90.84 862.978 89.5333 862.978 88C862.978 86.4667 863.231 85.1667 863.738 84.1C864.244 83.02 864.938 82.2 865.818 81.64C866.711 81.08 867.711 80.8 868.818 80.8C869.938 80.8 870.938 81.08 871.818 81.64C872.698 82.2 873.391 83.02 873.898 84.1C874.418 85.1667 874.678 86.4667 874.678 88C874.678 89.5333 874.418 90.84 873.898 91.92C873.391 92.9867 872.698 93.8 871.818 94.36C870.938 94.92 869.938 95.2 868.818 95.2ZM868.818 92.94C869.471 92.94 870.038 92.7667 870.518 92.42C870.998 92.06 871.371 91.5133 871.638 90.78C871.918 90.0467 872.058 89.12 872.058 88C872.058 86.8667 871.918 85.94 871.638 85.22C871.371 84.4867 870.998 83.9467 870.518 83.6C870.038 83.24 869.471 83.06 868.818 83.06C868.191 83.06 867.631 83.24 867.138 83.6C866.658 83.9467 866.278 84.4867 865.998 85.22C865.731 85.94 865.598 86.8667 865.598 88C865.598 89.12 865.731 90.0467 865.998 90.78C866.278 91.5133 866.658 92.06 867.138 92.42C867.631 92.7667 868.191 92.94 868.818 92.94ZM883.055 95.2C881.895 95.2 880.888 95.0267 880.035 94.68C879.181 94.3333 878.521 93.8467 878.055 93.22C877.588 92.58 877.355 91.8333 877.355 90.98C877.355 90.1267 877.581 89.4067 878.035 88.82C878.488 88.2333 879.141 87.7867 879.995 87.48C880.848 87.1733 881.868 87.02 883.055 87.02C884.241 87.02 885.261 87.1733 886.115 87.48C886.981 87.7867 887.641 88.24 888.095 88.84C888.561 89.4267 888.795 90.14 888.795 90.98C888.795 91.8333 888.555 92.58 888.075 93.22C887.608 93.8467 886.941 94.3333 886.075 94.68C885.221 95.0267 884.215 95.2 883.055 95.2ZM883.055 93.16C884.015 93.16 884.775 92.96 885.335 92.56C885.895 92.16 886.175 91.6067 886.175 90.9C886.175 90.2067 885.895 89.66 885.335 89.26C884.775 88.86 884.015 88.66 883.055 88.66C882.095 88.66 881.341 88.86 880.795 89.26C880.248 89.66 879.975 90.2067 879.975 90.9C879.975 91.6067 880.248 92.16 880.795 92.56C881.341 92.96 882.095 93.16 883.055 93.16ZM883.055 88.38C881.975 88.38 881.048 88.24 880.275 87.96C879.501 87.6667 878.901 87.2467 878.475 86.7C878.061 86.14 877.855 85.4733 877.855 84.7C877.855 83.9 878.068 83.2133 878.495 82.64C878.935 82.0533 879.548 81.6 880.335 81.28C881.121 80.96 882.028 80.8 883.055 80.8C884.095 80.8 885.008 80.96 885.795 81.28C886.581 81.6 887.195 82.0533 887.635 82.64C888.075 83.2133 888.295 83.9 888.295 84.7C888.295 85.4733 888.081 86.14 887.655 86.7C887.241 87.2467 886.641 87.6667 885.855 87.96C885.068 88.24 884.135 88.38 883.055 88.38ZM883.055 86.78C883.881 86.78 884.535 86.6067 885.015 86.26C885.495 85.9 885.735 85.42 885.735 84.82C885.735 84.1933 885.488 83.7067 884.995 83.36C884.501 83.0133 883.855 82.84 883.055 82.84C882.255 82.84 881.615 83.0133 881.135 83.36C880.655 83.7067 880.415 84.1933 880.415 84.82C880.415 85.42 880.648 85.9 881.115 86.26C881.595 86.6067 882.241 86.78 883.055 86.78Z" fill="#EDAF85"/>
<rect x="854.607" y="47.4043" width="12" height="5" transform="rotate(-12.8048 854.607 47.4043)" fill="#F9F7F8"/>
<circle cx="861.012" cy="48.0118" r="12" transform="rotate(-5.0611 861.012 48.0118)" fill="#E16811" fill-opacity="0.5"/>
<path d="M918.7 98V96.26L924.26 90.98C924.727 90.54 925.073 90.1533 925.3 89.82C925.527 89.4867 925.673 89.18 925.74 88.9C925.82 88.6067 925.86 88.3333 925.86 88.08C925.86 87.44 925.64 86.9467 925.2 86.6C924.76 86.24 924.113 86.06 923.26 86.06C922.58 86.06 921.96 86.18 921.4 86.42C920.853 86.66 920.38 87.0267 919.98 87.52L918.16 86.12C918.707 85.3867 919.44 84.82 920.36 84.42C921.293 84.0067 922.333 83.8 923.48 83.8C924.493 83.8 925.373 83.9667 926.12 84.3C926.88 84.62 927.46 85.08 927.86 85.68C928.273 86.28 928.48 86.9933 928.48 87.82C928.48 88.2733 928.42 88.7267 928.3 89.18C928.18 89.62 927.953 90.0867 927.62 90.58C927.287 91.0733 926.8 91.6267 926.16 92.24L921.38 96.78L920.84 95.8H929.02V98H918.7ZM937.361 98.2C936.254 98.2 935.254 97.92 934.361 97.36C933.481 96.8 932.787 95.9867 932.281 94.92C931.774 93.84 931.521 92.5333 931.521 91C931.521 89.4667 931.774 88.1667 932.281 87.1C932.787 86.02 933.481 85.2 934.361 84.64C935.254 84.08 936.254 83.8 937.361 83.8C938.481 83.8 939.481 84.08 940.361 84.64C941.241 85.2 941.934 86.02 942.441 87.1C942.961 88.1667 943.221 89.4667 943.221 91C943.221 92.5333 942.961 93.84 942.441 94.92C941.934 95.9867 941.241 96.8 940.361 97.36C939.481 97.92 938.481 98.2 937.361 98.2ZM937.361 95.94C938.014 95.94 938.581 95.7667 939.061 95.42C939.541 95.06 939.914 94.5133 940.181 93.78C940.461 93.0467 940.601 92.12 940.601 91C940.601 89.8667 940.461 88.94 940.181 88.22C939.914 87.4867 939.541 86.9467 939.061 86.6C938.581 86.24 938.014 86.06 937.361 86.06C936.734 86.06 936.174 86.24 935.681 86.6C935.201 86.9467 934.821 87.4867 934.541 88.22C934.274 88.94 934.141 89.8667 934.141 91C934.141 92.12 934.274 93.0467 934.541 93.78C934.821 94.5133 935.201 95.06 935.681 95.42C936.174 95.7667 936.734 95.94 937.361 95.94ZM948.198 98V85L949.338 86.18H945.238V84H950.798V98H948.198ZM960.415 98.2C959.309 98.2 958.309 97.92 957.415 97.36C956.535 96.8 955.842 95.9867 955.335 94.92C954.829 93.84 954.575 92.5333 954.575 91C954.575 89.4667 954.829 88.1667 955.335 87.1C955.842 86.02 956.535 85.2 957.415 84.64C958.309 84.08 959.309 83.8 960.415 83.8C961.535 83.8 962.535 84.08 963.415 84.64C964.295 85.2 964.989 86.02 965.495 87.1C966.015 88.1667 966.275 89.4667 966.275 91C966.275 92.5333 966.015 93.84 965.495 94.92C964.989 95.9867 964.295 96.8 963.415 97.36C962.535 97.92 961.535 98.2 960.415 98.2ZM960.415 95.94C961.069 95.94 961.635 95.7667 962.115 95.42C962.595 95.06 962.969 94.5133 963.235 93.78C963.515 93.0467 963.655 92.12 963.655 91C963.655 89.8667 963.515 88.94 963.235 88.22C962.969 87.4867 962.595 86.9467 962.115 86.6C961.635 86.24 961.069 86.06 960.415 86.06C959.789 86.06 959.229 86.24 958.735 86.6C958.255 86.9467 957.875 87.4867 957.595 88.22C957.329 88.94 957.195 89.8667 957.195 91C957.195 92.12 957.329 93.0467 957.595 93.78C957.875 94.5133 958.255 95.06 958.735 95.42C959.229 95.7667 959.789 95.94 960.415 95.94Z" fill="#EDAF85"/>
<rect x="934.607" y="40.4043" width="12" height="5" transform="rotate(-12.8048 934.607 40.4043)" fill="#F9F7F8"/>
<circle cx="941.012" cy="41.0118" r="12" transform="rotate(-5.0611 941.012 41.0118)" fill="#E16811" fill-opacity="0.5"/>
<path d="M1024.7 94V92.26L1030.26 86.98C1030.73 86.54 1031.07 86.1533 1031.3 85.82C1031.53 85.4867 1031.67 85.18 1031.74 84.9C1031.82 84.6067 1031.86 84.3333 1031.86 84.08C1031.86 83.44 1031.64 82.9467 1031.2 82.6C1030.76 82.24 1030.11 82.06 1029.26 82.06C1028.58 82.06 1027.96 82.18 1027.4 82.42C1026.85 82.66 1026.38 83.0267 1025.98 83.52L1024.16 82.12C1024.71 81.3867 1025.44 80.82 1026.36 80.42C1027.29 80.0067 1028.33 79.8 1029.48 79.8C1030.49 79.8 1031.37 79.9667 1032.12 80.3C1032.88 80.62 1033.46 81.08 1033.86 81.68C1034.27 82.28 1034.48 82.9933 1034.48 83.82C1034.48 84.2733 1034.42 84.7267 1034.3 85.18C1034.18 85.62 1033.95 86.0867 1033.62 86.58C1033.29 87.0733 1032.8 87.6267 1032.16 88.24L1027.38 92.78L1026.84 91.8H1035.02V94H1024.7ZM1043.36 94.2C1042.25 94.2 1041.25 93.92 1040.36 93.36C1039.48 92.8 1038.79 91.9867 1038.28 90.92C1037.77 89.84 1037.52 88.5333 1037.52 87C1037.52 85.4667 1037.77 84.1667 1038.28 83.1C1038.79 82.02 1039.48 81.2 1040.36 80.64C1041.25 80.08 1042.25 79.8 1043.36 79.8C1044.48 79.8 1045.48 80.08 1046.36 80.64C1047.24 81.2 1047.93 82.02 1048.44 83.1C1048.96 84.1667 1049.22 85.4667 1049.22 87C1049.22 88.5333 1048.96 89.84 1048.44 90.92C1047.93 91.9867 1047.24 92.8 1046.36 93.36C1045.48 93.92 1044.48 94.2 1043.36 94.2ZM1043.36 91.94C1044.01 91.94 1044.58 91.7667 1045.06 91.42C1045.54 91.06 1045.91 90.5133 1046.18 89.78C1046.46 89.0467 1046.6 88.12 1046.6 87C1046.6 85.8667 1046.46 84.94 1046.18 84.22C1045.91 83.4867 1045.54 82.9467 1045.06 82.6C1044.58 82.24 1044.01 82.06 1043.36 82.06C1042.73 82.06 1042.17 82.24 1041.68 82.6C1041.2 82.9467 1040.82 83.4867 1040.54 84.22C1040.27 84.94 1040.14 85.8667 1040.14 87C1040.14 88.12 1040.27 89.0467 1040.54 89.78C1040.82 90.5133 1041.2 91.06 1041.68 91.42C1042.17 91.7667 1042.73 91.94 1043.36 91.94ZM1054.2 94V81L1055.34 82.18H1051.24V80H1056.8V94H1054.2ZM1065.22 94.2C1064.23 94.2 1063.26 94.06 1062.32 93.78C1061.38 93.4867 1060.6 93.0867 1059.96 92.58L1061.06 90.56C1061.56 90.9733 1062.18 91.3067 1062.9 91.56C1063.63 91.8133 1064.39 91.94 1065.18 91.94C1066.1 91.94 1066.82 91.7467 1067.34 91.36C1067.87 90.9733 1068.14 90.4533 1068.14 89.8C1068.14 89.36 1068.02 88.9733 1067.8 88.64C1067.58 88.3067 1067.2 88.0533 1066.64 87.88C1066.09 87.7067 1065.34 87.62 1064.38 87.62H1061L1061.72 80H1069.94V82.18H1062.68L1064.04 80.94L1063.5 86.64L1062.14 85.42H1064.96C1066.34 85.42 1067.46 85.6067 1068.3 85.98C1069.15 86.34 1069.77 86.8467 1070.16 87.5C1070.56 88.14 1070.76 88.8733 1070.76 89.7C1070.76 90.5133 1070.56 91.26 1070.16 91.94C1069.76 92.62 1069.14 93.1667 1068.32 93.58C1067.5 93.9933 1066.47 94.2 1065.22 94.2Z" fill="#EDAF85"/>
<rect x="1056.57" y="40.957" width="12" height="5" transform="rotate(10.5289 1056.57 40.957)" fill="#F9F7F8"/>
<circle cx="1062.01" cy="44.0118" r="12" transform="rotate(-5.0611 1062.01 44.0118)" fill="#E16811" fill-opacity="0.5"/>
<path d="M1111.7 103V101.26L1117.26 95.98C1117.73 95.54 1118.07 95.1533 1118.3 94.82C1118.53 94.4867 1118.67 94.18 1118.74 93.9C1118.82 93.6067 1118.86 93.3333 1118.86 93.08C1118.86 92.44 1118.64 91.9467 1118.2 91.6C1117.76 91.24 1117.11 91.06 1116.26 91.06C1115.58 91.06 1114.96 91.18 1114.4 91.42C1113.85 91.66 1113.38 92.0267 1112.98 92.52L1111.16 91.12C1111.71 90.3867 1112.44 89.82 1113.36 89.42C1114.29 89.0067 1115.33 88.8 1116.48 88.8C1117.49 88.8 1118.37 88.9667 1119.12 89.3C1119.88 89.62 1120.46 90.08 1120.86 90.68C1121.27 91.28 1121.48 91.9933 1121.48 92.82C1121.48 93.2733 1121.42 93.7267 1121.3 94.18C1121.18 94.62 1120.95 95.0867 1120.62 95.58C1120.29 96.0733 1119.8 96.6267 1119.16 97.24L1114.38 101.78L1113.84 100.8H1122.02V103H1111.7ZM1130.36 103.2C1129.25 103.2 1128.25 102.92 1127.36 102.36C1126.48 101.8 1125.79 100.987 1125.28 99.92C1124.77 98.84 1124.52 97.5333 1124.52 96C1124.52 94.4667 1124.77 93.1667 1125.28 92.1C1125.79 91.02 1126.48 90.2 1127.36 89.64C1128.25 89.08 1129.25 88.8 1130.36 88.8C1131.48 88.8 1132.48 89.08 1133.36 89.64C1134.24 90.2 1134.93 91.02 1135.44 92.1C1135.96 93.1667 1136.22 94.4667 1136.22 96C1136.22 97.5333 1135.96 98.84 1135.44 99.92C1134.93 100.987 1134.24 101.8 1133.36 102.36C1132.48 102.92 1131.48 103.2 1130.36 103.2ZM1130.36 100.94C1131.01 100.94 1131.58 100.767 1132.06 100.42C1132.54 100.06 1132.91 99.5133 1133.18 98.78C1133.46 98.0467 1133.6 97.12 1133.6 96C1133.6 94.8667 1133.46 93.94 1133.18 93.22C1132.91 92.4867 1132.54 91.9467 1132.06 91.6C1131.58 91.24 1131.01 91.06 1130.36 91.06C1129.73 91.06 1129.17 91.24 1128.68 91.6C1128.2 91.9467 1127.82 92.4867 1127.54 93.22C1127.27 93.94 1127.14 94.8667 1127.14 96C1127.14 97.12 1127.27 98.0467 1127.54 98.78C1127.82 99.5133 1128.2 100.06 1128.68 100.42C1129.17 100.767 1129.73 100.94 1130.36 100.94ZM1141.2 103V90L1142.34 91.18H1138.24V89H1143.8V103H1141.2ZM1153.2 103.2C1152.04 103.2 1151.03 103.027 1150.18 102.68C1149.32 102.333 1148.66 101.847 1148.2 101.22C1147.73 100.58 1147.5 99.8333 1147.5 98.98C1147.5 98.1267 1147.72 97.4067 1148.18 96.82C1148.63 96.2333 1149.28 95.7867 1150.14 95.48C1150.99 95.1733 1152.01 95.02 1153.2 95.02C1154.38 95.02 1155.4 95.1733 1156.26 95.48C1157.12 95.7867 1157.78 96.24 1158.24 96.84C1158.7 97.4267 1158.94 98.14 1158.94 98.98C1158.94 99.8333 1158.7 100.58 1158.22 101.22C1157.75 101.847 1157.08 102.333 1156.22 102.68C1155.36 103.027 1154.36 103.2 1153.2 103.2ZM1153.2 101.16C1154.16 101.16 1154.92 100.96 1155.48 100.56C1156.04 100.16 1156.32 99.6067 1156.32 98.9C1156.32 98.2067 1156.04 97.66 1155.48 97.26C1154.92 96.86 1154.16 96.66 1153.2 96.66C1152.24 96.66 1151.48 96.86 1150.94 97.26C1150.39 97.66 1150.12 98.2067 1150.12 98.9C1150.12 99.6067 1150.39 100.16 1150.94 100.56C1151.48 100.96 1152.24 101.16 1153.2 101.16ZM1153.2 96.38C1152.12 96.38 1151.19 96.24 1150.42 95.96C1149.64 95.6667 1149.04 95.2467 1148.62 94.7C1148.2 94.14 1148 93.4733 1148 92.7C1148 91.9 1148.21 91.2133 1148.64 90.64C1149.08 90.0533 1149.69 89.6 1150.48 89.28C1151.26 88.96 1152.17 88.8 1153.2 88.8C1154.24 88.8 1155.15 88.96 1155.94 89.28C1156.72 89.6 1157.34 90.0533 1157.78 90.64C1158.22 91.2133 1158.44 91.9 1158.44 92.7C1158.44 93.4733 1158.22 94.14 1157.8 94.7C1157.38 95.2467 1156.78 95.6667 1156 95.96C1155.21 96.24 1154.28 96.38 1153.2 96.38ZM1153.2 94.78C1154.02 94.78 1154.68 94.6067 1155.16 94.26C1155.64 93.9 1155.88 93.42 1155.88 92.82C1155.88 92.1933 1155.63 91.7067 1155.14 91.36C1154.64 91.0133 1154 90.84 1153.2 90.84C1152.4 90.84 1151.76 91.0133 1151.28 91.36C1150.8 91.7067 1150.56 92.1933 1150.56 92.82C1150.56 93.42 1150.79 93.9 1151.26 94.26C1151.74 94.6067 1152.38 94.78 1153.2 94.78Z" fill="#EDAF85"/>
<rect x="1136.57" y="51.957" width="12" height="5" transform="rotate(10.5289 1136.57 51.957)" fill="#F9F7F8"/>
<circle cx="1142.01" cy="55.0118" r="12" transform="rotate(-5.0611 1142.01 55.0118)" fill="#E16811" fill-opacity="0.5"/>
<path d="M1197.7 119V117.26L1203.26 111.98C1203.73 111.54 1204.07 111.153 1204.3 110.82C1204.53 110.487 1204.67 110.18 1204.74 109.9C1204.82 109.607 1204.86 109.333 1204.86 109.08C1204.86 108.44 1204.64 107.947 1204.2 107.6C1203.76 107.24 1203.11 107.06 1202.26 107.06C1201.58 107.06 1200.96 107.18 1200.4 107.42C1199.85 107.66 1199.38 108.027 1198.98 108.52L1197.16 107.12C1197.71 106.387 1198.44 105.82 1199.36 105.42C1200.29 105.007 1201.33 104.8 1202.48 104.8C1203.49 104.8 1204.37 104.967 1205.12 105.3C1205.88 105.62 1206.46 106.08 1206.86 106.68C1207.27 107.28 1207.48 107.993 1207.48 108.82C1207.48 109.273 1207.42 109.727 1207.3 110.18C1207.18 110.62 1206.95 111.087 1206.62 111.58C1206.29 112.073 1205.8 112.627 1205.16 113.24L1200.38 117.78L1199.84 116.8H1208.02V119H1197.7ZM1216.36 119.2C1215.25 119.2 1214.25 118.92 1213.36 118.36C1212.48 117.8 1211.79 116.987 1211.28 115.92C1210.77 114.84 1210.52 113.533 1210.52 112C1210.52 110.467 1210.77 109.167 1211.28 108.1C1211.79 107.02 1212.48 106.2 1213.36 105.64C1214.25 105.08 1215.25 104.8 1216.36 104.8C1217.48 104.8 1218.48 105.08 1219.36 105.64C1220.24 106.2 1220.93 107.02 1221.44 108.1C1221.96 109.167 1222.22 110.467 1222.22 112C1222.22 113.533 1221.96 114.84 1221.44 115.92C1220.93 116.987 1220.24 117.8 1219.36 118.36C1218.48 118.92 1217.48 119.2 1216.36 119.2ZM1216.36 116.94C1217.01 116.94 1217.58 116.767 1218.06 116.42C1218.54 116.06 1218.91 115.513 1219.18 114.78C1219.46 114.047 1219.6 113.12 1219.6 112C1219.6 110.867 1219.46 109.94 1219.18 109.22C1218.91 108.487 1218.54 107.947 1218.06 107.6C1217.58 107.24 1217.01 107.06 1216.36 107.06C1215.73 107.06 1215.17 107.24 1214.68 107.6C1214.2 107.947 1213.82 108.487 1213.54 109.22C1213.27 109.94 1213.14 110.867 1213.14 112C1213.14 113.12 1213.27 114.047 1213.54 114.78C1213.82 115.513 1214.2 116.06 1214.68 116.42C1215.17 116.767 1215.73 116.94 1216.36 116.94ZM1227.2 119V106L1228.34 107.18H1224.24V105H1229.8V119H1227.2ZM1238.3 104.8C1239.58 104.8 1240.66 105.073 1241.56 105.62C1242.46 106.153 1243.16 106.933 1243.64 107.96C1244.12 108.987 1244.36 110.253 1244.36 111.76C1244.36 113.36 1244.06 114.713 1243.48 115.82C1242.9 116.927 1242.1 117.767 1241.08 118.34C1240.05 118.913 1238.86 119.2 1237.5 119.2C1236.79 119.2 1236.12 119.127 1235.48 118.98C1234.84 118.833 1234.28 118.607 1233.82 118.3L1234.78 116.34C1235.16 116.593 1235.58 116.773 1236.04 116.88C1236.49 116.973 1236.96 117.02 1237.44 117.02C1238.76 117.02 1239.8 116.613 1240.58 115.8C1241.35 114.987 1241.74 113.787 1241.74 112.2C1241.74 111.947 1241.73 111.653 1241.72 111.32C1241.7 110.973 1241.66 110.627 1241.58 110.28L1242.38 111.16C1242.15 111.707 1241.82 112.167 1241.4 112.54C1240.97 112.9 1240.47 113.173 1239.9 113.36C1239.32 113.547 1238.69 113.64 1238 113.64C1237.09 113.64 1236.27 113.467 1235.54 113.12C1234.82 112.76 1234.24 112.26 1233.82 111.62C1233.39 110.967 1233.18 110.207 1233.18 109.34C1233.18 108.407 1233.4 107.607 1233.86 106.94C1234.31 106.26 1234.92 105.733 1235.7 105.36C1236.48 104.987 1237.35 104.8 1238.3 104.8ZM1238.44 106.84C1237.9 106.84 1237.43 106.94 1237.02 107.14C1236.6 107.327 1236.28 107.6 1236.04 107.96C1235.81 108.307 1235.7 108.727 1235.7 109.22C1235.7 109.953 1235.95 110.533 1236.46 110.96C1236.96 111.387 1237.64 111.6 1238.5 111.6C1239.06 111.6 1239.55 111.5 1239.98 111.3C1240.4 111.087 1240.74 110.8 1240.98 110.44C1241.22 110.067 1241.34 109.653 1241.34 109.2C1241.34 108.76 1241.22 108.367 1241 108.02C1240.77 107.66 1240.44 107.373 1240.02 107.16C1239.59 106.947 1239.06 106.84 1238.44 106.84Z" fill="#EDAF85"/>
<rect x="1215.57" y="66.957" width="13.6752" height="5" transform="rotate(10.5289 1215.57 66.957)" fill="#F9F7F8"/>
<circle cx="1221.01" cy="70.0118" r="12" transform="rotate(-5.0611 1221.01 70.0118)" fill="#E16811" fill-opacity="0.5"/>
<path d="M1274.7 138V136.26L1280.26 130.98C1280.73 130.54 1281.07 130.153 1281.3 129.82C1281.53 129.487 1281.67 129.18 1281.74 128.9C1281.82 128.607 1281.86 128.333 1281.86 128.08C1281.86 127.44 1281.64 126.947 1281.2 126.6C1280.76 126.24 1280.11 126.06 1279.26 126.06C1278.58 126.06 1277.96 126.18 1277.4 126.42C1276.85 126.66 1276.38 127.027 1275.98 127.52L1274.16 126.12C1274.71 125.387 1275.44 124.82 1276.36 124.42C1277.29 124.007 1278.33 123.8 1279.48 123.8C1280.49 123.8 1281.37 123.967 1282.12 124.3C1282.88 124.62 1283.46 125.08 1283.86 125.68C1284.27 126.28 1284.48 126.993 1284.48 127.82C1284.48 128.273 1284.42 128.727 1284.3 129.18C1284.18 129.62 1283.95 130.087 1283.62 130.58C1283.29 131.073 1282.8 131.627 1282.16 132.24L1277.38 136.78L1276.84 135.8H1285.02V138H1274.7ZM1293.36 138.2C1292.25 138.2 1291.25 137.92 1290.36 137.36C1289.48 136.8 1288.79 135.987 1288.28 134.92C1287.77 133.84 1287.52 132.533 1287.52 131C1287.52 129.467 1287.77 128.167 1288.28 127.1C1288.79 126.02 1289.48 125.2 1290.36 124.64C1291.25 124.08 1292.25 123.8 1293.36 123.8C1294.48 123.8 1295.48 124.08 1296.36 124.64C1297.24 125.2 1297.93 126.02 1298.44 127.1C1298.96 128.167 1299.22 129.467 1299.22 131C1299.22 132.533 1298.96 133.84 1298.44 134.92C1297.93 135.987 1297.24 136.8 1296.36 137.36C1295.48 137.92 1294.48 138.2 1293.36 138.2ZM1293.36 135.94C1294.01 135.94 1294.58 135.767 1295.06 135.42C1295.54 135.06 1295.91 134.513 1296.18 133.78C1296.46 133.047 1296.6 132.12 1296.6 131C1296.6 129.867 1296.46 128.94 1296.18 128.22C1295.91 127.487 1295.54 126.947 1295.06 126.6C1294.58 126.24 1294.01 126.06 1293.36 126.06C1292.73 126.06 1292.17 126.24 1291.68 126.6C1291.2 126.947 1290.82 127.487 1290.54 128.22C1290.27 128.94 1290.14 129.867 1290.14 131C1290.14 132.12 1290.27 133.047 1290.54 133.78C1290.82 134.513 1291.2 135.06 1291.68 135.42C1292.17 135.767 1292.73 135.94 1293.36 135.94ZM1301.78 138V136.26L1307.34 130.98C1307.8 130.54 1308.15 130.153 1308.38 129.82C1308.6 129.487 1308.75 129.18 1308.82 128.9C1308.9 128.607 1308.94 128.333 1308.94 128.08C1308.94 127.44 1308.72 126.947 1308.28 126.6C1307.84 126.24 1307.19 126.06 1306.34 126.06C1305.66 126.06 1305.04 126.18 1304.48 126.42C1303.93 126.66 1303.46 127.027 1303.06 127.52L1301.24 126.12C1301.78 125.387 1302.52 124.82 1303.44 124.42C1304.37 124.007 1305.41 123.8 1306.56 123.8C1307.57 123.8 1308.45 123.967 1309.2 124.3C1309.96 124.62 1310.54 125.08 1310.94 125.68C1311.35 126.28 1311.56 126.993 1311.56 127.82C1311.56 128.273 1311.5 128.727 1311.38 129.18C1311.26 129.62 1311.03 130.087 1310.7 130.58C1310.36 131.073 1309.88 131.627 1309.24 132.24L1304.46 136.78L1303.92 135.8H1312.1V138H1301.78ZM1320.44 138.2C1319.33 138.2 1318.33 137.92 1317.44 137.36C1316.56 136.8 1315.87 135.987 1315.36 134.92C1314.85 133.84 1314.6 132.533 1314.6 131C1314.6 129.467 1314.85 128.167 1315.36 127.1C1315.87 126.02 1316.56 125.2 1317.44 124.64C1318.33 124.08 1319.33 123.8 1320.44 123.8C1321.56 123.8 1322.56 124.08 1323.44 124.64C1324.32 125.2 1325.01 126.02 1325.52 127.1C1326.04 128.167 1326.3 129.467 1326.3 131C1326.3 132.533 1326.04 133.84 1325.52 134.92C1325.01 135.987 1324.32 136.8 1323.44 137.36C1322.56 137.92 1321.56 138.2 1320.44 138.2ZM1320.44 135.94C1321.09 135.94 1321.66 135.767 1322.14 135.42C1322.62 135.06 1322.99 134.513 1323.26 133.78C1323.54 133.047 1323.68 132.12 1323.68 131C1323.68 129.867 1323.54 128.94 1323.26 128.22C1322.99 127.487 1322.62 126.947 1322.14 126.6C1321.66 126.24 1321.09 126.06 1320.44 126.06C1319.81 126.06 1319.25 126.24 1318.76 126.6C1318.28 126.947 1317.9 127.487 1317.62 128.22C1317.35 128.94 1317.22 129.867 1317.22 131C1317.22 132.12 1317.35 133.047 1317.62 133.78C1317.9 134.513 1318.28 135.06 1318.76 135.42C1319.25 135.767 1319.81 135.94 1320.44 135.94Z" fill="#EDAF85"/>
<rect x="1292.8" y="85.5703" width="13.6752" height="5" transform="rotate(14.6677 1292.8 85.5703)" fill="#F9F7F8"/>
<circle cx="1298.01" cy="89.0104" r="12" transform="rotate(-0.922321 1298.01 89.0104)" fill="#E16811" fill-opacity="0.5"/>
</svg>
